<svg width="567" height="107" viewBox="0 0 567 107" fill="none" xmlns="http://www.w3.org/2000/svg">
<path d="M456.219 24.3577C456.413 23.8492 456.482 23.3021 456.419 22.7621C456.356 22.222 456.163 21.7047 455.857 21.2533C455.542 20.8803 455.156 20.5723 454.721 20.347C454.286 20.1216 453.81 19.9833 453.321 19.9399L432.309 19.7011C432.188 19.7011 432.068 19.5817 431.947 19.5817C431.919 19.5609 431.896 19.5338 431.88 19.5027C431.865 19.4716 431.856 19.4374 431.856 19.4026C431.856 19.3678 431.865 19.3336 431.88 19.3025C431.896 19.2714 431.919 19.2444 431.947 19.2235C432.068 18.9847 432.188 18.8653 432.43 18.8653L453.562 18.6265C454.904 18.4793 456.182 17.9813 457.264 17.1839C458.346 16.3864 459.194 15.3183 459.721 14.0893L460.928 10.9849C460.928 10.8655 461.049 10.7461 460.928 10.6267C460.272 7.73529 458.679 5.13484 456.391 3.22049C454.103 1.30613 451.246 0.182522 448.254 0.0203899C445.261 -0.141742 442.297 0.666469 439.811 2.32221C437.326 3.97796 435.455 6.39071 434.483 9.19386C433.221 8.30269 431.682 7.87992 430.136 7.99985C428.717 8.15628 427.394 8.78522 426.385 9.78334C425.375 10.7815 424.739 12.0894 424.581 13.4923C424.5 14.2104 424.541 14.9366 424.702 15.6415C422.406 15.7042 420.226 16.6501 418.624 18.2779C417.023 19.9057 416.128 22.087 416.128 24.3577C416.108 24.7989 416.149 25.2407 416.249 25.6711C416.254 25.7643 416.294 25.8523 416.361 25.9183C416.428 25.9844 416.517 26.0239 416.611 26.0293H455.374C455.615 26.0293 455.857 25.9099 455.857 25.6711L456.219 24.3577Z" fill="white"/>
<path d="M462.86 10.9848H462.257C462.136 10.9848 462.015 11.1042 461.894 11.2236L461.049 14.0892C460.855 14.5978 460.786 15.1449 460.849 15.6849C460.912 16.2249 461.105 16.7422 461.411 17.1937C461.726 17.5667 462.112 17.8746 462.547 18.1C462.982 18.3254 463.458 18.4637 463.947 18.5071L468.415 18.7459C468.536 18.7459 468.657 18.8653 468.777 18.8653C468.806 18.8861 468.828 18.9132 468.844 18.9443C468.86 18.9753 468.868 19.0096 468.868 19.0444C468.868 19.0791 468.86 19.1134 468.844 19.1445C468.828 19.1756 468.806 19.2026 468.777 19.2235C468.657 19.4623 468.536 19.5817 468.294 19.5817L463.706 19.8205C462.364 19.9677 461.086 20.4656 460.004 21.2631C458.922 22.0605 458.074 23.1287 457.547 24.3577L457.306 25.4323C457.185 25.5517 457.306 25.7905 457.547 25.7905H473.487C473.536 25.7975 473.586 25.793 473.634 25.7774C473.681 25.7619 473.724 25.7357 473.759 25.7009C473.794 25.6662 473.82 25.6238 473.836 25.5772C473.852 25.5306 473.856 25.481 473.849 25.4323C474.137 24.4206 474.299 23.3782 474.332 22.3279C474.313 19.3254 473.098 16.4512 470.951 14.328C468.804 12.2049 465.897 11.0038 462.86 10.9848Z" fill="white"/>
<path d="M369.162 30.3278H371.819V37.4918H376.408V39.7604H369.162V30.3278ZM379.185 34.9844C379.185 34.3212 379.321 33.6648 379.586 33.0552C379.85 32.4455 380.236 31.8952 380.721 31.4375C381.207 30.9798 381.781 30.6243 382.41 30.3925C383.038 30.1607 383.708 30.0575 384.378 30.089C385.041 30.0594 385.704 30.1649 386.325 30.3989C386.946 30.6329 387.512 30.9904 387.987 31.4493C388.463 31.9082 388.838 32.4588 389.089 33.0669C389.341 33.6749 389.463 34.3276 389.449 34.9844C389.449 35.6476 389.313 36.304 389.049 36.9136C388.785 37.5233 388.399 38.0736 387.913 38.5313C387.428 38.989 386.853 39.3445 386.225 39.5763C385.596 39.8081 384.927 39.9113 384.257 39.8798C383.596 39.8993 382.937 39.7868 382.321 39.5492C381.705 39.3116 381.143 38.9536 380.67 38.4968C380.197 38.0399 379.821 37.4934 379.566 36.89C379.311 36.2865 379.181 35.6384 379.185 34.9844ZM386.793 34.9844C386.817 34.6534 386.772 34.3211 386.662 34.0076C386.552 33.694 386.379 33.4058 386.153 33.1603C385.928 32.9147 385.654 32.717 385.349 32.579C385.044 32.4411 384.713 32.3657 384.378 32.3576C383.727 32.389 383.113 32.6669 382.663 33.1337C382.213 33.6005 381.963 34.2204 381.963 34.865C381.963 35.5096 382.213 36.1295 382.663 36.5963C383.113 37.0631 383.727 37.341 384.378 37.3724C385.827 37.6112 386.793 36.4172 386.793 34.9844ZM392.71 35.5814V30.3278H395.367V35.5814C395.367 36.8948 396.091 37.6112 397.178 37.6112C397.432 37.6321 397.687 37.5959 397.925 37.5055C398.162 37.415 398.376 37.2726 398.551 37.0889C398.725 36.9052 398.855 36.6849 398.931 36.4445C399.007 36.2041 399.027 35.9499 398.989 35.7008V30.3278H401.646V35.5814C401.646 38.6858 399.834 39.9992 397.178 39.9992C394.4 39.8798 392.71 38.5664 392.71 35.5814ZM405.631 30.3278H409.374C412.755 30.3278 414.808 32.2382 414.808 34.9844C414.808 37.7306 412.755 39.7604 409.374 39.7604H405.752V30.3278H405.631ZM409.374 37.3724C409.711 37.4042 410.05 37.366 410.371 37.2605C410.692 37.1549 410.987 36.9842 411.237 36.7594C411.487 36.5346 411.687 36.2605 411.823 35.9549C411.96 35.6492 412.031 35.3186 412.031 34.9844C412.031 34.6502 411.96 34.3196 411.823 34.0139C411.687 33.7083 411.487 33.4342 411.237 33.2094C410.987 32.9845 410.692 32.8139 410.371 32.7083C410.05 32.6027 409.711 32.5646 409.374 32.5964H408.287V37.3724H409.374ZM418.552 30.3278H426.159V32.5964H421.208V34.1486H425.676V36.2978H421.208V39.7604H418.552V30.3278ZM429.903 30.3278H432.559V37.4918H437.148V39.7604H429.903V30.3278ZM444.031 30.2084H446.688L450.793 39.7604H447.895L447.171 38.0888H443.427L442.703 39.7604H439.925L444.031 30.2084ZM446.446 36.059L445.359 33.4322L444.273 36.059H446.446ZM454.175 30.3278H458.643C459.213 30.282 459.786 30.3539 460.327 30.5389C460.867 30.7239 461.363 31.018 461.782 31.4024C462.128 31.7712 462.379 32.217 462.514 32.7021C462.649 33.1872 462.664 33.6972 462.557 34.1891C462.451 34.681 462.226 35.1403 461.902 35.5282C461.578 35.916 461.164 36.2209 460.695 36.4172L462.99 39.7604H459.971L458.039 36.8948H456.831V39.7604H454.175V30.3278ZM458.522 34.865C459.367 34.865 459.971 34.3874 459.971 33.7904C459.971 33.074 459.367 32.7158 458.522 32.7158H456.831V34.9844H458.522V34.865ZM466.371 30.3278H474.099V32.477H469.028V33.9098H473.616V36.059H469.028V37.4918H474.22V39.7604H466.371V30.3278ZM363.366 36.1784C363.184 36.6004 362.881 36.9607 362.495 37.2151C362.109 37.4696 361.657 37.6073 361.193 37.6112C360.541 37.5798 359.927 37.3019 359.478 36.8351C359.028 36.3683 358.777 35.7484 358.777 35.1038C358.777 34.4592 359.028 33.8393 359.478 33.3725C359.927 32.9057 360.541 32.6278 361.193 32.5964C361.686 32.6058 362.167 32.7577 362.574 33.0335C362.982 33.3093 363.299 33.6969 363.487 34.1486H366.264C366.027 33.0048 365.387 31.9814 364.458 31.26C363.53 30.5386 362.373 30.166 361.193 30.2084C360.525 30.1869 359.86 30.2971 359.236 30.5325C358.612 30.768 358.042 31.1239 357.558 31.5796C357.075 32.0353 356.688 32.5817 356.421 33.1867C356.153 33.7918 356.01 34.4435 356 35.1038C355.996 35.7578 356.126 36.4059 356.381 37.0094C356.636 37.6128 357.012 38.1593 357.485 38.6162C357.958 39.073 358.52 39.431 359.136 39.6686C359.752 39.9062 360.411 40.0187 361.072 39.9992C362.226 40.0069 363.349 39.636 364.267 38.9446C365.185 38.2532 365.845 37.2803 366.144 36.1784H363.366Z" fill="white"/>
<g clip-path="url(#clip0_393_92)">
<path d="M202.666 35.2857C199.31 35.2857 196.904 32.6191 196.904 29.1905C196.904 25.7619 199.31 23.0953 202.666 23.0953C206.022 23.0953 208.365 25.7619 208.365 29.1905C208.365 32.6191 206.022 35.2857 202.666 35.2857ZM202.096 38.9048C204.819 38.9048 207.162 37.8254 208.618 35.6032C208.871 37.7619 210.454 38.5873 212.417 38.5873H214V35.1587H213.303C212.164 35.1587 211.911 34.5873 211.911 33.3175V19.7302H208.301V22.5238C207.098 20.5556 204.756 19.4127 202.096 19.4127C197.347 19.4127 192.979 23.4127 192.979 29.1905C192.979 34.9683 197.411 38.9048 202.096 38.9048ZM183.481 34.2064C183.481 37.3175 185.38 38.5873 187.66 38.5873H192.029V35.1587H188.8C187.47 35.1587 187.217 34.6508 187.217 33.3175V23.1587H192.029V19.7302H187.217V13.4445H183.418C183.481 13.4445 183.481 34.2064 183.481 34.2064ZM166.322 38.5873H170.121V30.5238H171.387L177.846 38.5873H182.594L174.363 28.3651L180.695 19.7937H176.453L171.324 27.0318H170.184V13.4445H166.385C166.322 13.4445 166.322 38.5873 166.322 38.5873ZM154.038 19.4127C148.783 19.4127 144.414 23.4127 144.414 29.1905C144.414 34.9683 148.783 38.9683 154.038 38.9683C159.294 38.9683 163.662 34.9683 163.662 29.1905C163.662 23.4127 159.294 19.4127 154.038 19.4127ZM154.038 35.2857C150.682 35.2857 148.276 32.6191 148.276 29.1905C148.276 25.7619 150.682 23.0953 154.038 23.0953C157.394 23.0953 159.8 25.7619 159.8 29.1905C159.8 32.6191 157.394 35.2857 154.038 35.2857Z" fill="white"/>
<path fill-rule="evenodd" clip-rule="evenodd" d="M114.908 9.25397L114.085 19.4127C113.705 19.3492 113.325 19.3492 112.882 19.3492C112.375 19.3492 111.869 19.4127 111.425 19.4762L110.982 14.5873C110.982 14.4603 111.109 14.2698 111.235 14.2698H112.059L111.679 9.31746C111.679 9.19048 111.805 9 111.932 9H114.655C114.845 9 114.971 9.12698 114.908 9.25397ZM108.07 9.7619C108.006 9.63492 107.88 9.50794 107.753 9.57143L105.22 10.5238C105.03 10.5873 104.967 10.7778 105.03 10.9048L107.12 15.4127L106.36 15.7302C106.233 15.7937 106.17 15.9206 106.233 16.1111L108.323 20.5556C109.083 20.1111 109.906 19.7937 110.792 19.6032L108.07 9.7619ZM101.864 12.619L107.753 20.9365C106.993 21.4444 106.36 22.0159 105.79 22.6508L102.181 19.1587C102.054 19.0317 102.054 18.8413 102.181 18.7778L102.814 18.2698L99.3318 14.7143C99.2051 14.5873 99.2051 14.3968 99.3318 14.3333L101.421 12.619C101.548 12.4286 101.738 12.4921 101.864 12.619ZM96.9257 17.381C96.7991 17.3175 96.6091 17.3175 96.5458 17.4444L95.2161 19.7937C95.1528 19.9206 95.2161 20.1111 95.3428 20.1746L99.8383 22.3333L99.3951 23.0317C99.3318 23.1587 99.3951 23.3492 99.5217 23.4127L104.017 25.4444C104.334 24.619 104.777 23.8571 105.284 23.1587L96.9257 17.381ZM93.5699 23.7937C93.5699 23.6667 93.7598 23.5397 93.8864 23.6032L103.701 26.1429C103.447 26.9683 103.321 27.8571 103.257 28.746L98.3187 28.3651C98.192 28.3651 98.0654 28.2381 98.0654 28.0476L98.192 27.2222L93.3799 26.7778C93.2533 26.7778 93.1266 26.6508 93.1266 26.4603L93.5699 23.7937ZM93.2533 30.4603C93.0633 30.4603 93 30.5873 93 30.7778L93.5065 33.4444C93.5065 33.5714 93.6965 33.6984 93.8231 33.6349L98.6353 32.3651L98.7619 33.1905C98.7619 33.3175 98.9519 33.4444 99.0785 33.381L103.827 32.0476C103.574 31.2222 103.384 30.3333 103.321 29.4444L93.2533 30.4603ZM94.8362 37.5079C94.7729 37.381 94.8362 37.1905 94.9628 37.127L104.144 32.746C104.46 33.5714 104.967 34.3333 105.537 35.0317L101.548 37.8889C101.421 37.9524 101.231 37.9524 101.168 37.8254L100.598 37.127L96.4825 39.9841C96.3558 40.0476 96.1659 40.0476 96.1026 39.9206L94.8362 37.5079ZM105.917 35.6032L98.7619 42.8413C98.6353 42.9683 98.6353 43.1587 98.7619 43.2222L100.851 44.9365C100.978 45.0635 101.168 45 101.231 44.873L104.144 40.8095L104.777 41.381C104.904 41.5079 105.094 41.4444 105.157 41.3175L107.943 37.254C107.183 36.8095 106.487 36.2381 105.917 35.6032ZM104.524 47.1587C104.397 47.0952 104.334 46.9683 104.397 46.7778L108.576 37.5714C109.336 37.9524 110.222 38.2698 111.046 38.4603L109.779 43.2222C109.716 43.3492 109.589 43.4762 109.463 43.4127L108.703 43.0952L107.373 47.9206C107.31 48.0476 107.183 48.1746 107.057 48.1111L104.524 47.1587ZM111.742 38.5873L110.919 48.746C110.919 48.873 111.046 49.0635 111.172 49.0635H113.895C114.021 49.0635 114.148 48.9365 114.148 48.746L113.768 43.7937H114.591C114.718 43.7937 114.845 43.6667 114.845 43.4762L114.401 38.5873C113.895 38.6508 113.452 38.7143 112.945 38.7143C112.565 38.6508 112.122 38.6508 111.742 38.5873ZM121.556 11.1587C121.62 11.0317 121.556 10.8413 121.43 10.7778L118.897 9.8254C118.77 9.7619 118.58 9.88889 118.58 10.0159L117.251 14.8413L116.491 14.5238C116.364 14.4603 116.174 14.5873 116.174 14.7143L114.908 19.4762C115.794 19.6667 116.617 19.9841 117.377 20.3651L121.556 11.1587ZM127.128 15.1587L119.973 22.3968C119.403 21.7619 118.707 21.1905 117.947 20.746L120.733 16.6825C120.796 16.5556 120.986 16.5556 121.113 16.619L121.746 17.1905L124.659 13.127C124.722 13 124.912 13 125.039 13.0635L127.128 14.7778C127.192 14.9048 127.192 15.0952 127.128 15.1587ZM130.927 20.873C131.054 20.8095 131.117 20.619 131.054 20.4921L129.724 18.1429C129.661 18.0159 129.471 17.9524 129.344 18.0794L125.229 20.9365L124.785 20.2381C124.722 20.1111 124.532 20.0476 124.406 20.1746L120.417 22.9683C120.986 23.6667 121.43 24.4286 121.81 25.254L130.927 20.873ZM132.384 24.5556L132.827 27.2222C132.827 27.3492 132.763 27.5397 132.574 27.5397L122.506 28.4921C122.443 27.6032 122.253 26.7143 121.999 25.8889L126.748 24.5556C126.875 24.4921 127.065 24.619 127.065 24.746L127.192 25.5714L132.004 24.3016C132.194 24.3016 132.32 24.4286 132.384 24.5556ZM131.94 34.3968C132.067 34.4603 132.257 34.3333 132.257 34.2064L132.7 31.5397C132.7 31.4127 132.637 31.2222 132.447 31.2222L127.508 30.7778L127.635 29.9524C127.635 29.8254 127.571 29.6349 127.381 29.6349L122.443 29.254C122.443 30.1429 122.253 31.0317 121.999 31.8571L131.94 34.3968ZM129.344 40.4921C129.281 40.619 129.091 40.6825 128.964 40.5556L120.606 34.7778C121.113 34.0794 121.556 33.3175 121.873 32.4921L126.368 34.5238C126.495 34.5873 126.558 34.7778 126.495 34.9048L126.052 35.6667L130.547 37.8254C130.674 37.8889 130.737 38.0794 130.674 38.2064L129.344 40.4921ZM118.137 37.0635L124.026 45.381C124.089 45.5079 124.279 45.5079 124.406 45.4444L126.495 43.7302C126.622 43.6032 126.622 43.4762 126.495 43.3492L123.013 39.7937L123.646 39.2857C123.772 39.1587 123.772 39.0317 123.646 38.9048L120.163 35.4127C119.593 36.0476 118.897 36.619 118.137 37.0635ZM118.137 48.3651C118.01 48.4286 117.821 48.3016 117.821 48.1746L115.161 38.3968C116.048 38.2064 116.871 37.8889 117.631 37.4444L119.72 41.8889C119.783 42.0159 119.72 42.2064 119.593 42.2698L118.834 42.5873L120.923 47.0952C120.986 47.2222 120.923 47.4127 120.796 47.4762L118.137 48.3651Z" fill="white"/>
</g>
<g clip-path="url(#clip1_393_92)">
<path d="M566.93 91.566C566.02 92.2559 565.344 92.5434 564.596 92.5434C563.407 92.5434 562.801 91.8995 562.801 90.6622V85.9707H566.93V83.1604H562.801V79.6832L559.325 80.5663V83.1627H557.505V85.973H559.325V90.975C559.325 93.9991 560.749 95.5952 563.385 95.5952C564.504 95.5952 565.556 95.31 566.464 94.7604L567.002 91.6166L566.932 91.5683L566.93 91.566Z" fill="white"/>
<path d="M553.282 87.8496C552.232 87.5874 551.554 87.3506 551.227 87.1597C550.901 86.9918 550.738 86.7549 550.738 86.4445C550.738 85.8971 551.344 85.5407 552.349 85.5407C553.586 85.5407 555.196 86.088 556.595 87.0171L556.665 86.9941V83.9446C555.381 83.2547 553.982 82.8959 552.489 82.8959C549.432 82.8959 547.472 84.3977 547.472 86.6836C547.472 88.5648 548.522 89.6135 551.624 90.446C552.673 90.7312 553.374 90.9704 553.723 91.1612C554.072 91.3521 554.237 91.6143 554.237 91.9478C554.237 92.5181 553.583 92.9252 552.581 92.9252C550.925 92.9252 549.058 92.2099 547.263 90.9474L547.193 90.9957L547.659 94.259C549.175 95.1881 550.669 95.5929 552.372 95.5929C553.912 95.5929 555.149 95.2364 556.104 94.5212C557.039 93.8313 557.505 92.9022 557.505 91.7592C557.505 90.7358 557.201 89.9493 556.595 89.3536C555.987 88.758 554.892 88.259 553.282 87.8519" fill="white"/>
<path d="M542.735 91.2578C541.733 92.1156 541.032 92.4491 540.169 92.4491C538.885 92.4491 538.185 91.6143 538.185 90.1631V83.1604H534.639V90.9014C534.639 93.7829 536.202 95.5928 538.653 95.5928C540.334 95.5928 541.546 94.8546 542.83 93.139V95.3307H546.26V83.1581H542.737V91.2578H542.735Z" fill="white"/>
<path d="M532.774 82.9672C531.49 82.9672 530.51 83.7767 528.854 86.1593V82.9902L525.401 83.4433V95.3284H528.947V88.2061C530.463 87.1574 531.63 86.7296 532.914 86.7296C533.218 86.7296 533.472 86.7296 533.754 86.8009L533.542 83.0615C533.193 82.9902 533.028 82.9672 532.772 82.9672" fill="white"/>
<path d="M525.867 78.6575H510.446V82.1117H516.278V95.3307H520.033V82.1117H525.867V78.6575Z" fill="white"/>
<path d="M505.966 91.6143C505.008 92.2812 504.215 92.5434 503.375 92.5434C501.672 92.5434 500.458 91.2325 500.458 89.303C500.458 87.3735 501.742 85.9684 503.585 85.9684C504.425 85.9684 505.148 86.1593 505.966 86.6353V91.6143ZM505.966 84.1585C504.961 83.372 503.911 82.9672 502.792 82.9672C501.181 82.9672 499.805 83.5859 498.71 84.8254C497.591 86.088 497.03 87.6357 497.03 89.5169C497.03 91.2555 497.518 92.686 498.523 93.829C499.503 94.9972 500.715 95.5676 502.161 95.5676C503.607 95.5676 504.844 94.9719 506.036 93.6151V95.3307H509.489V77.2753L505.966 78.2274V84.1585Z" fill="white"/>
<path d="M491.921 82.8729C490.31 82.8729 489.051 83.6111 487.767 85.3268V82.9925L484.314 83.4456V95.3307H487.859V87.208C488.864 86.3502 489.54 86.042 490.402 86.042C491.686 86.042 492.41 86.8768 492.41 88.3049V95.3307H495.933V87.5667C495.933 84.6851 494.369 82.8752 491.918 82.8752" fill="white"/>
<path d="M476.781 92.5917C475.078 92.5917 473.771 91.1636 473.771 89.2571C473.771 87.3506 475.031 85.8994 476.803 85.8994C478.576 85.8994 479.813 87.3046 479.813 89.2111C479.813 91.1176 478.529 92.594 476.781 92.594M476.803 82.8246C474.961 82.8246 473.42 83.4433 472.183 84.6828C470.947 85.9454 470.341 87.4701 470.341 89.2571C470.341 91.044 470.947 92.5917 472.161 93.806C473.352 95.0455 474.891 95.6642 476.781 95.6642C478.671 95.6642 480.164 95.0455 481.401 93.783C482.638 92.5204 483.244 90.9957 483.244 89.2088C483.244 87.4219 482.638 85.8741 481.446 84.6598C480.232 83.4456 478.693 82.8269 476.803 82.8269" fill="white"/>
<path d="M467.284 83.1581L464.601 90.8048L461.661 83.1581H457.834L462.804 94.8293C462.265 96.1402 461.497 96.7105 460.213 96.7105C459.56 96.7105 458.954 96.5449 458.229 96.1632L458.181 96.2115L458.859 99.4978C459.512 99.783 460.166 99.9026 460.911 99.9026C463.362 99.9026 465.11 98.4721 466.255 95.448L471.037 83.1581H467.282H467.284Z" fill="white"/>
<path d="M452.678 85.4211C454.054 85.4211 454.964 86.4698 455.127 88.1601H450.088C450.275 86.5158 451.277 85.4211 452.678 85.4211ZM453.705 92.7573C451.768 92.7573 450.486 91.8282 450.112 90.2092H458.348C458.37 89.8044 458.418 89.3744 458.418 89.1858C458.418 87.2793 457.904 85.7316 456.902 84.5656C455.877 83.3973 454.498 82.827 452.75 82.827C451.002 82.827 449.576 83.4456 448.434 84.6622C447.29 85.9017 446.709 87.4242 446.709 89.2111C446.709 91.1406 447.292 92.6883 448.459 93.8566C449.601 95.0249 451.142 95.5952 453.079 95.5952C454.595 95.5952 455.762 95.333 457.186 94.6431L458.141 91.6189L458.071 91.5706C456.555 92.3571 455.131 92.7619 453.708 92.7619" fill="white"/>
<path d="M439.498 92.3755H437.282V88.2084H439.404C441.199 88.2084 442.203 88.9466 442.203 90.3035C442.203 91.566 441.176 92.3755 439.498 92.3755ZM437.282 81.6104H439.311C440.782 81.6104 441.667 82.3026 441.667 83.5169C441.667 84.7312 440.687 85.566 439.171 85.566H437.282V81.6127V81.6104ZM442.949 86.6354C444.443 85.8488 445.26 84.5863 445.26 83.0615C445.26 80.2972 443.208 78.6552 439.755 78.6552H433.713V95.3284H439.78C441.625 95.3284 443.116 94.8984 444.235 94.0176C445.332 93.1598 445.891 91.9938 445.891 90.5403C445.891 88.7304 444.889 87.3713 442.951 86.6331" fill="white"/>
<path d="M423.73 77.8112L420.171 74.1776C420.144 74.15 420.101 74.1385 420.065 74.1569C420.031 74.173 420.006 74.2075 420.006 74.2489V99.7738C420.006 99.8129 420.029 99.8497 420.065 99.8658C420.078 99.8727 420.09 99.8727 420.103 99.8727C420.128 99.8727 420.155 99.8635 420.173 99.8451L423.732 96.2115C423.863 96.0804 423.975 95.7999 423.975 95.609V78.4183C423.975 78.2298 423.861 77.9492 423.732 77.8135" fill="white"/>
<path d="M417.323 72.0251H404.707C404.601 72.0251 404.511 71.9354 404.511 71.825V61.1013C404.511 61.0622 404.486 61.0254 404.452 61.0093C404.414 60.9909 404.373 61.0024 404.346 61.03L400.787 64.6636C400.659 64.7947 400.542 65.0821 400.542 65.2661V75.9761C400.542 76.0313 400.584 76.075 400.638 76.075H413.246C413.352 76.075 413.44 76.1647 413.44 76.275V78.1976C413.44 78.4782 413.217 78.7059 412.944 78.7059H400.638C400.614 78.7059 400.589 78.7151 400.571 78.7335C400.553 78.7519 400.544 78.7772 400.544 78.8048V92.4699C400.544 94.0406 401.796 95.317 403.335 95.317H412.947C413.219 95.317 413.442 95.5447 413.442 95.8229V97.7455C413.442 97.8536 413.354 97.9456 413.249 97.9456H403.335C400.377 97.9456 397.971 95.4895 397.971 92.4699V67.7821C397.971 67.743 397.947 67.7062 397.913 67.6901C397.874 67.6717 397.834 67.6832 397.807 67.7108L394.243 71.3444C394.115 71.4755 394 71.7629 394 71.9469V93.6543C394 98.2561 397.665 102 402.172 102H417.323C417.378 102 417.42 101.956 417.42 101.901L417.429 72.1332C417.429 72.078 417.375 72.0251 417.323 72.0251ZM413.442 90.7589C413.442 91.0372 413.219 91.2648 412.947 91.2648H405.029C404.756 91.2648 404.533 91.0372 404.533 90.7589V83.2663C404.533 82.988 404.756 82.7603 405.029 82.7603H412.947C413.219 82.7603 413.442 82.988 413.442 83.2663V90.7589Z" fill="white"/>
</g>
<path d="M277.007 23.6483C277.007 24.4783 277.097 25.1513 277.254 25.6448C277.434 26.1383 277.658 26.6767 277.972 27.2599C278.084 27.4394 278.129 27.6188 278.129 27.7759C278.129 28.0002 277.994 28.2245 277.703 28.4488L276.29 29.391C276.088 29.5256 275.886 29.5929 275.706 29.5929C275.482 29.5929 275.258 29.4807 275.033 29.2788C274.719 28.9423 274.45 28.5834 274.226 28.2245C274.001 27.8432 273.777 27.417 273.53 26.901C271.781 28.9648 269.582 29.9967 266.935 29.9967C265.051 29.9967 263.548 29.4583 262.449 28.3815C261.35 27.3048 260.789 25.8691 260.789 24.0745C260.789 22.1678 261.462 20.62 262.83 19.4535C264.199 18.287 266.016 17.7037 268.326 17.7037C269.089 17.7037 269.874 17.771 270.704 17.8832C271.534 17.9954 272.386 18.1748 273.284 18.3767V16.7392C273.284 15.0343 272.925 13.8454 272.229 13.15C271.511 12.4546 270.3 12.1181 268.573 12.1181C267.788 12.1181 266.98 12.2078 266.15 12.4097C265.32 12.6116 264.513 12.8584 263.727 13.1724C263.369 13.3294 263.099 13.4192 262.942 13.464C262.785 13.5089 262.673 13.5313 262.583 13.5313C262.269 13.5313 262.112 13.307 262.112 12.8359V11.7367C262.112 11.3778 262.157 11.1086 262.269 10.9516C262.381 10.7946 262.583 10.6376 262.897 10.4805C263.683 10.0768 264.625 9.74027 265.724 9.47108C266.823 9.17946 267.99 9.04486 269.223 9.04486C271.893 9.04486 273.844 9.65054 275.101 10.8619C276.334 12.0732 276.962 13.9127 276.962 16.3802V23.6483H277.007ZM267.9 27.058C268.64 27.058 269.403 26.9234 270.21 26.6543C271.018 26.3851 271.736 25.8916 272.341 25.2186C272.7 24.7924 272.97 24.3213 273.104 23.7829C273.239 23.2445 273.328 22.594 273.328 21.8313V20.8891C272.678 20.7321 271.983 20.5975 271.265 20.5078C270.547 20.4181 269.851 20.3732 269.156 20.3732C267.653 20.3732 266.554 20.6648 265.814 21.2705C265.073 21.8762 264.714 22.7286 264.714 23.8502C264.714 24.9045 264.984 25.6897 265.544 26.228C266.083 26.7888 266.868 27.058 267.9 27.058ZM285.913 29.4807C285.509 29.4807 285.24 29.4134 285.061 29.2564C284.881 29.1218 284.724 28.8078 284.589 28.3815L279.318 11.0413C279.183 10.5927 279.116 10.3011 279.116 10.144C279.116 9.78513 279.295 9.58324 279.654 9.58324H281.853C282.279 9.58324 282.571 9.65054 282.728 9.80756C282.907 9.94216 283.042 10.2562 283.176 10.6824L286.945 25.5326L290.444 10.6824C290.556 10.2338 290.691 9.94216 290.871 9.80756C291.05 9.67297 291.364 9.58324 291.768 9.58324H293.562C293.989 9.58324 294.28 9.65054 294.46 9.80756C294.639 9.94216 294.796 10.2562 294.886 10.6824L298.43 25.7121L302.311 10.6824C302.446 10.2338 302.603 9.94216 302.76 9.80756C302.939 9.67297 303.231 9.58324 303.635 9.58324H305.721C306.08 9.58324 306.282 9.7627 306.282 10.144C306.282 10.2562 306.259 10.3684 306.237 10.503C306.214 10.6376 306.169 10.817 306.08 11.0638L300.673 28.404C300.539 28.8526 300.382 29.1442 300.202 29.2788C300.023 29.4134 299.731 29.5032 299.35 29.5032H297.421C296.995 29.5032 296.703 29.4359 296.523 29.2788C296.344 29.1218 296.187 28.8302 296.097 28.3815L292.62 13.9127L289.166 28.3591C289.054 28.8078 288.919 29.0994 288.739 29.2564C288.56 29.4134 288.246 29.4807 287.842 29.4807H285.913ZM314.739 30.0864C313.572 30.0864 312.406 29.9518 311.284 29.6826C310.162 29.4134 309.287 29.1218 308.704 28.7853C308.345 28.5834 308.099 28.3591 308.009 28.1572C307.919 27.9553 307.874 27.731 307.874 27.5291V26.3851C307.874 25.914 308.054 25.6897 308.39 25.6897C308.525 25.6897 308.659 25.7121 308.794 25.757C308.929 25.8018 309.13 25.8916 309.355 25.9813C310.117 26.3178 310.947 26.587 311.822 26.7664C312.72 26.9459 313.594 27.0356 314.492 27.0356C315.905 27.0356 317.004 26.7888 317.767 26.2953C318.53 25.8018 318.933 25.084 318.933 24.1643C318.933 23.5362 318.732 23.0202 318.328 22.594C317.924 22.1678 317.161 21.7864 316.062 21.4275L312.809 20.4181C311.172 19.9021 309.96 19.1394 309.22 18.13C308.48 17.1429 308.099 16.0438 308.099 14.8773C308.099 13.9351 308.3 13.1051 308.704 12.3873C309.108 11.6694 309.646 11.0413 310.319 10.5478C310.992 10.0319 311.755 9.65054 312.652 9.38135C313.55 9.11216 314.492 9 315.479 9C315.972 9 316.488 9.02243 316.982 9.08973C317.498 9.15703 317.969 9.24676 318.44 9.33649C318.889 9.44865 319.315 9.56081 319.719 9.6954C320.122 9.83 320.436 9.96459 320.661 10.0992C320.975 10.2786 321.199 10.4581 321.334 10.66C321.468 10.8395 321.536 11.0862 321.536 11.4003V12.4546C321.536 12.9257 321.356 13.1724 321.02 13.1724C320.84 13.1724 320.549 13.0827 320.167 12.9032C318.889 12.32 317.453 12.0284 315.86 12.0284C314.582 12.0284 313.572 12.2303 312.877 12.6565C312.181 13.0827 311.822 13.7332 311.822 14.6529C311.822 15.2811 312.047 15.8194 312.495 16.2456C312.944 16.6719 313.774 17.0981 314.963 17.4794L318.148 18.4889C319.763 19.0048 320.93 19.7227 321.625 20.6424C322.321 21.5621 322.657 22.6164 322.657 23.7829C322.657 24.7475 322.455 25.6224 322.074 26.3851C321.67 27.1478 321.132 27.8207 320.436 28.3591C319.741 28.9199 318.911 29.3237 317.946 29.6153C316.937 29.9294 315.883 30.0864 314.739 30.0864Z" fill="white"/>
<path fill-rule="evenodd" clip-rule="evenodd" d="M318.978 40.9885C311.598 46.4396 300.875 49.3334 291.656 49.3334C278.735 49.3334 267.092 44.5553 258.299 36.6142C257.603 35.9861 258.232 35.1337 259.062 35.6272C268.573 41.1456 280.305 44.488 292.441 44.488C300.629 44.488 309.624 42.7831 317.902 39.2837C319.135 38.7229 320.19 40.0912 318.978 40.9885Z" fill="white"/>
<path fill-rule="evenodd" clip-rule="evenodd" d="M322.051 37.489C321.109 36.2777 315.815 36.9058 313.415 37.1974C312.697 37.2871 312.585 36.659 313.236 36.188C317.453 33.2269 324.384 34.0793 325.192 35.0663C326 36.0758 324.968 43.0074 321.02 46.3274C320.414 46.8433 319.831 46.5742 320.1 45.9012C320.997 43.6804 322.994 38.678 322.051 37.489Z" fill="white"/>
<path fill-rule="evenodd" clip-rule="evenodd" d="M29.141 88.567C27.4949 87.2199 25.495 85.7629 23.0189 84.1821C21.3048 83.0412 19.3185 81.8041 17.0601 80.2509C17.0465 80.0447 16.9921 79.8522 16.9921 79.646C16.9921 74.354 21.1687 70.4089 26.6922 70.4089C29.6988 70.4089 32.3517 71.756 34.0387 73.8316V74.2165L30.8144 77.0206H30.447C29.5627 76.0309 28.1887 75.2887 26.665 75.2887C24.2842 75.2887 22.4067 77.1306 22.4067 79.646C22.4067 82.1753 24.2842 84.0034 26.665 84.0034C28.1887 84.0034 29.5627 83.2749 30.447 82.2852H30.8144L34.0387 85.0756V85.4605C32.8551 86.9038 31.1953 88.0447 29.141 88.567ZM19.0056 85.3643C20.298 86.9588 22.121 88.1134 24.2706 88.6082C22.8149 87.7835 21.4136 86.9725 20.1076 86.079C19.713 85.8316 19.3729 85.5979 19.0056 85.3643ZM52.5273 88.0997C52.0375 88.5395 51.2348 88.8969 50.2689 88.8969C48.2146 88.8969 47.0582 88.3746 45.6161 86.0378C44.9223 84.8832 43.4122 82.3127 42.2422 82.3127H41.7524V88.567H36.4467V70.7388H44.4325C49.0173 70.7388 51.4797 73.0344 51.4797 76.6907C51.4797 79.0412 50.1737 80.6907 48.2146 81.5704C48.5819 81.7629 49.0173 82.2027 49.5479 83.0275C49.8744 83.5498 50.2417 84.1959 50.8675 84.1959C51.262 84.1959 51.3981 84.0859 51.5613 84.0034L51.8606 84.1959L52.6633 87.7148L52.5273 88.0997ZM44.2149 75.1237H41.7524V78.7526H44.2149C45.208 78.7526 46.0651 78.1753 46.0651 76.9931C46.0651 75.7835 45.208 75.1237 44.2149 75.1237ZM63.4245 88.8969C58.0507 88.8969 53.6973 84.7595 53.6973 79.646C53.6973 74.5464 58.0507 70.4089 63.4245 70.4089C68.812 70.4089 73.1518 74.5464 73.1518 79.646C73.1518 84.7595 68.812 88.8969 63.4245 88.8969ZM67.7372 79.646C67.7372 77.2406 65.8189 75.2887 63.4245 75.2887C61.0437 75.2887 59.1119 77.2406 59.1119 79.646C59.1119 82.0653 61.0437 84.0172 63.4245 84.0172C65.8189 84.0172 67.7372 82.0653 67.7372 79.646ZM99.9528 71.1512L93.4634 88.567H90.2528L86.5795 78.8625L82.9335 88.567H79.7228L73.2334 71.1512L73.4783 70.7388H78.5392L81.6819 80.5533L84.9742 70.7388H88.1849L91.518 80.6082L94.647 70.7388H99.7079L99.9528 71.1512ZM110.17 88.567H102.048V70.7388H110.17C115.87 70.7388 119.38 74.299 119.38 79.6186C119.38 84.9931 115.87 88.567 110.17 88.567ZM109.952 75.1237H107.354V84.1821H109.952C112.279 84.1821 113.966 82.5601 113.966 79.646C113.966 76.7457 112.279 75.1237 109.952 75.1237ZM147.487 88.567H142.181V75.1237H136.876V70.7388H152.793V75.1237H147.487V88.567ZM166.574 81.5567L170.112 88.1546L169.867 88.567H164.588L161.296 82.3127H160.031V88.567H154.725V70.7388H162.711C167.295 70.7388 169.758 73.0481 169.758 76.6907C169.758 79.0275 168.465 80.6495 166.574 81.5567ZM162.493 75.1375H160.031V78.7526H162.493C163.486 78.7526 164.343 78.1753 164.343 76.9931C164.343 75.7973 163.486 75.1375 162.493 75.1375ZM172.969 70.7388H178.274V88.567H172.969V70.7388ZM198.191 88.1546L197.947 88.567H192.396L187.893 81.9278L186.927 83.0825V88.567H181.621V70.7388H186.927V77.0756L191.838 70.7388H197.484L197.729 71.1512L191.729 78.7251L198.191 88.1546ZM212.898 70.7388V75.1237H204.939V77.5979H210.993V81.7079H204.939V84.1821H212.98V88.567H199.634V70.7388H212.898ZM120.645 85.7354V85.3505L123.108 82.2302H123.489C124.455 83.1787 126.427 84.2509 128.073 84.2509C129.352 84.2509 130.182 83.8385 130.182 83.1512C130.182 82.2027 129.012 82.1203 127.257 81.6254C124.577 80.8557 121.421 79.3162 121.421 75.811C121.421 72.5395 124.291 70.299 128.414 70.299C131.366 70.299 134.046 71.4399 135.352 72.9519V73.3368L132.862 76.3471H132.495C131.733 75.646 130.264 74.5464 128.522 74.5464C127.502 74.5464 126.835 74.9313 126.835 75.5636C126.835 76.4296 128.046 76.8419 129.216 77.1993C132.223 78.079 135.624 79.1237 135.624 83.1512C135.624 86.8625 132.25 88.7732 128.359 88.7732C125.067 88.7732 122.224 87.5086 120.645 85.7354ZM21.4 95.0412C7.08799 87.4536 3.76847 81.378 3.11545 78.6014C10.2851 86.2715 18.2437 90.299 22.9101 92.9244C33.0319 98.3677 35.6032 102.189 36.8956 105.158C32.066 99.2887 25.3725 97.2405 21.4 95.0412ZM19.4682 87.2749C3.80928 77.4605 0.707438 69.9003 0 67C9.83611 77.7766 17.305 82.0103 22.3795 85.378C32.8278 92.0584 35.0318 96.5533 36.2426 100.072C31.2361 92.9656 24.6107 90.7938 19.4682 87.2749Z" fill="white"/>
<path d="M284.707 77.114C279.038 77.1239 274.685 81.5017 274.701 87.1762C274.716 92.8252 279.104 97.1646 284.797 97.1504C290.459 97.1376 294.835 92.74 294.812 87.0867C294.79 81.4335 290.403 77.1026 284.707 77.114ZM286.943 92.7173C284.821 93.6619 282.814 93.2855 281.071 91.7656C278.814 89.7941 278.442 86.0072 280.206 83.4704C280.691 82.7595 281.336 82.1723 282.089 81.756C282.842 81.3396 283.682 81.1056 284.542 81.0729C285.402 81.0402 286.258 81.2095 287.04 81.5675C287.823 81.9254 288.511 82.4618 289.048 83.1337C289.933 84.2189 290.393 85.5939 290.392 87.6194C290.308 89.6676 289.314 91.6605 286.943 92.7173Z" fill="white"/>
<path d="M306.597 77.1069C300.892 77.1154 296.512 81.4931 296.528 87.1919C296.539 92.8153 300.95 97.1604 306.637 97.1533C312.278 97.1462 316.658 92.7897 316.664 87.1876C316.668 81.4761 312.296 77.0998 306.597 77.1069ZM305.87 93.1406C303.724 92.9005 301.893 91.2656 301.224 89.0001C300.372 86.1081 301.579 82.9817 304.032 81.7133C307.592 79.8668 311.772 82.2204 312.193 86.3013C312.221 86.5853 312.227 86.8694 312.231 86.949C312.229 90.8665 309.393 93.5355 305.87 93.1406Z" fill="white"/>
<path d="M351.961 90.1534C356.386 88.3211 360.813 86.4873 365.322 84.6223C364.975 83.8269 364.707 83.1181 364.369 82.4434C361.823 77.3895 356.349 75.6041 351.618 78.3611C348.514 80.1707 347.129 83.0599 346.93 86.5626C346.517 94.1391 353.724 99.274 360.69 96.372C362.519 95.6093 363.957 94.3536 365.107 92.7088L361.698 90.4503C358.894 94.6121 353.319 93.6675 351.961 90.1534ZM355.186 81.1721C357.189 80.604 359.258 81.3965 360.098 83.1181L351.216 86.8112C350.996 84.28 352.728 81.8681 355.186 81.1721Z" fill="white"/>
<path d="M273.09 80.1722H272.28C268.138 80.1722 263.996 80.1722 259.854 80.1722C259.596 80.1722 259.339 80.2048 259.08 80.2219H258.938C258.898 80.2446 258.826 80.2659 258.826 80.2901C258.807 81.594 258.79 82.8994 258.8 84.2047C258.8 84.2658 259.053 84.3241 259.188 84.3837C259.351 84.4087 259.515 84.4253 259.68 84.4334C262.748 84.4334 265.817 84.4334 268.887 84.4334C268.671 87.1322 267.509 89.2941 265.316 90.9176C260.761 94.2926 251.927 93.7144 248.666 86.2771C246.775 81.9662 247.326 77.8015 250.393 74.1823C253.416 70.6127 258.134 69.367 262.43 70.9338C263.867 71.4579 265.164 72.3627 266.438 73.0473L269.429 70.2449C269.429 70.2449 269.213 70.0843 269.13 70.0062C263.67 64.9467 255.285 64.6456 249.154 69.296C241.789 74.8882 240.886 85.4561 247.249 92.1562C250.997 96.1008 255.661 97.6519 261.028 97.0553C266.979 96.3934 271.615 92.294 272.922 86.6322C273.422 84.5134 273.479 82.3141 273.09 80.1722Z" fill="white"/>
<path d="M337.601 77.7688H333.469C333.446 78.2745 333.426 78.7489 333.401 79.3114L332.529 78.6494L331.534 77.9847C329.665 76.9435 327.689 76.8768 325.686 77.4407C321.867 78.5145 318.918 81.9434 318.523 85.8638C318.084 90.206 319.739 93.6036 323.469 95.8877C326.516 97.7527 330.684 97.6944 333.242 95.0354C333.263 95.0141 333.326 95.0354 333.384 95.0354C333.384 95.8593 333.455 96.6859 333.371 97.4956C333.122 99.8776 331.85 101.42 329.753 101.99C327.516 102.598 325.282 101.87 323.919 100.064C323.594 99.6376 323.333 99.1561 323.01 98.6433L319.255 100.206C321.371 105.282 326.911 107.387 331.955 105.461L334.307 104.102C334.314 104.104 334.322 104.104 334.329 104.103C334.337 104.102 334.344 104.099 334.35 104.095C334.356 104.091 334.362 104.085 334.366 104.079C334.37 104.072 334.373 104.065 334.374 104.058L334.504 103.937L334.646 103.795L335.127 103.294L335.119 103.277C335.48 102.818 335.899 102.393 336.189 101.893C337.236 100.088 337.627 98.1049 337.628 96.0354C337.628 90.1208 337.628 84.2057 337.628 78.2901C337.632 78.1338 337.614 77.9719 337.601 77.7688ZM333.206 89.8949C332.243 92.2187 330.162 93.4119 327.721 93.1519C325.473 92.9133 323.516 91.0568 323.009 88.6577C322.902 88.1535 322.867 87.6322 322.829 87.297C322.912 84.9234 323.706 83.1053 325.598 81.8923C326.158 81.5232 326.785 81.2691 327.444 81.1448C328.103 81.0204 328.78 81.0284 329.435 81.1681C330.091 81.3078 330.712 81.5765 331.263 81.9586C331.814 82.3407 332.283 82.8285 332.644 83.3937C333.972 85.4447 334.135 87.6521 333.206 89.8949Z" fill="white"/>
<path d="M340.601 67.0887V96.5169H344.933V67.0887H340.601Z" fill="white"/>
<defs>
<clipPath id="clip0_393_92">
<rect width="121" height="40" fill="white" transform="translate(93 9)"/>
</clipPath>
<clipPath id="clip1_393_92">
<rect width="173" height="41" fill="white" transform="translate(394 61)"/>
</clipPath>
</defs>
</svg>
