<svg width="1042" height="42" viewBox="0 0 1042 42" fill="none" xmlns="http://www.w3.org/2000/svg">
<path d="M804.988 25.3577C805.182 24.8492 805.251 24.3021 805.188 23.7621C805.125 23.222 804.932 22.7047 804.626 22.2533C804.311 21.8803 803.925 21.5723 803.49 21.347C803.055 21.1216 802.579 20.9833 802.09 20.9399L781.079 20.7011C780.958 20.7011 780.837 20.5817 780.716 20.5817C780.688 20.5609 780.665 20.5338 780.65 20.5027C780.634 20.4716 780.626 20.4374 780.626 20.4026C780.626 20.3678 780.634 20.3336 780.65 20.3025C780.665 20.2714 780.688 20.2444 780.716 20.2235C780.837 19.9847 780.958 19.8653 781.199 19.8653L802.332 19.6265C803.673 19.4793 804.951 18.9813 806.033 18.1839C807.116 17.3864 807.964 16.3183 808.49 15.0893L809.698 11.9849C809.698 11.8655 809.818 11.7461 809.698 11.6267C809.041 8.73529 807.448 6.13484 805.16 4.22049C802.873 2.30613 800.015 1.18252 797.023 1.02039C794.03 0.858258 791.066 1.66647 788.581 3.32221C786.095 4.97796 784.224 7.39071 783.252 10.1939C781.99 9.30269 780.451 8.87992 778.905 8.99985C777.486 9.15628 776.163 9.78522 775.154 10.7833C774.144 11.7815 773.508 13.0894 773.35 14.4923C773.27 15.2104 773.311 15.9366 773.471 16.6415C771.175 16.7042 768.995 17.6501 767.394 19.2779C765.793 20.9057 764.897 23.087 764.897 25.3577C764.877 25.7989 764.918 26.2407 765.018 26.6711C765.024 26.7643 765.063 26.8523 765.13 26.9183C765.197 26.9844 765.286 27.0239 765.38 27.0293H804.143C804.384 27.0293 804.626 26.9099 804.626 26.6711L804.988 25.3577Z" fill="white"/>
<path d="M811.63 11.9849H811.026C810.905 11.9849 810.785 12.1043 810.664 12.2237L809.818 15.0893C809.624 15.5978 809.556 16.1449 809.619 16.6849C809.682 17.225 809.874 17.7423 810.181 18.1937C810.495 18.5667 810.881 18.8747 811.316 19.1C811.752 19.3254 812.227 19.4637 812.717 19.5071L817.185 19.7459C817.305 19.7459 817.426 19.8653 817.547 19.8653C817.575 19.8862 817.598 19.9132 817.613 19.9443C817.629 19.9754 817.637 20.0096 817.637 20.0444C817.637 20.0792 817.629 20.1134 817.613 20.1445C817.598 20.1756 817.575 20.2026 817.547 20.2235C817.426 20.4623 817.305 20.5817 817.064 20.5817L812.475 20.8205C811.133 20.9677 809.856 21.4657 808.773 22.2631C807.691 23.0606 806.843 24.1287 806.317 25.3577L806.075 26.4323C805.954 26.5517 806.075 26.7905 806.317 26.7905H822.256C822.306 26.7975 822.356 26.793 822.403 26.7775C822.45 26.7619 822.493 26.7357 822.528 26.701C822.563 26.6662 822.59 26.6239 822.605 26.5772C822.621 26.5306 822.626 26.481 822.619 26.4323C822.906 25.4207 823.068 24.3782 823.102 23.3279C823.082 20.3254 821.868 17.4512 819.72 15.3281C817.573 13.2049 814.666 12.0038 811.63 11.9849Z" fill="white"/>
<path d="M717.932 31.3278H720.588V38.4918H725.177V40.7604H717.932V31.3278ZM727.955 35.9844C727.955 35.3212 728.091 34.6648 728.355 34.0552C728.619 33.4455 729.005 32.8952 729.491 32.4375C729.976 31.9798 730.551 31.6243 731.179 31.3925C731.808 31.1607 732.477 31.0575 733.147 31.089C733.811 31.0594 734.474 31.1649 735.094 31.3989C735.715 31.6329 736.281 31.9904 736.756 32.4493C737.232 32.9082 737.607 33.4588 737.859 34.0669C738.11 34.6749 738.233 35.3276 738.219 35.9844C738.219 36.6476 738.083 37.304 737.819 37.9136C737.554 38.5233 737.168 39.0736 736.683 39.5313C736.197 39.989 735.623 40.3445 734.994 40.5763C734.366 40.8081 733.696 40.9113 733.026 40.8798C732.365 40.8993 731.707 40.7868 731.09 40.5492C730.474 40.3116 729.913 39.9536 729.439 39.4968C728.966 39.0399 728.591 38.4934 728.335 37.89C728.08 37.2865 727.951 36.6384 727.955 35.9844ZM735.562 35.9844C735.586 35.6534 735.541 35.3211 735.431 35.0076C735.322 34.694 735.149 34.4058 734.923 34.1603C734.697 33.9147 734.423 33.717 734.118 33.579C733.813 33.4411 733.483 33.3657 733.147 33.3576C732.496 33.389 731.882 33.6669 731.432 34.1337C730.983 34.6005 730.732 35.2204 730.732 35.865C730.732 36.5096 730.983 37.1295 731.432 37.5963C731.882 38.0631 732.496 38.341 733.147 38.3724C734.596 38.6112 735.562 37.4172 735.562 35.9844ZM741.479 36.5814V31.3278H744.136V36.5814C744.136 37.8948 744.86 38.6112 745.947 38.6112C746.201 38.6321 746.456 38.5959 746.694 38.5055C746.932 38.415 747.146 38.2726 747.32 38.0889C747.494 37.9052 747.624 37.6849 747.7 37.4445C747.776 37.2041 747.796 36.9499 747.759 36.7008V31.3278H750.415V36.5814C750.415 39.6858 748.604 40.9992 745.947 40.9992C743.17 40.8798 741.479 39.5664 741.479 36.5814ZM754.4 31.3278H758.144C761.525 31.3278 763.578 33.2382 763.578 35.9844C763.578 38.7306 761.525 40.7604 758.144 40.7604H754.521V31.3278H754.4ZM758.144 38.3724C758.48 38.4042 758.82 38.366 759.14 38.2605C759.461 38.1549 759.756 37.9842 760.006 37.7594C760.256 37.5346 760.456 37.2605 760.593 36.9549C760.73 36.6492 760.8 36.3186 760.8 35.9844C760.8 35.6502 760.73 35.3196 760.593 35.0139C760.456 34.7083 760.256 34.4342 760.006 34.2094C759.756 33.9845 759.461 33.8139 759.14 33.7083C758.82 33.6027 758.48 33.5646 758.144 33.5964H757.057V38.3724H758.144ZM767.321 31.3278H774.929V33.5964H769.978V35.1486H774.446V37.2978H769.978V40.7604H767.321V31.3278ZM778.672 31.3278H781.329V38.4918H785.917V40.7604H778.672V31.3278ZM792.8 31.2084H795.457L799.563 40.7604H796.665L795.94 39.0888H792.197L791.472 40.7604H788.695L792.8 31.2084ZM795.216 37.059L794.129 34.4322L793.042 37.059H795.216ZM802.944 31.3278H807.412C807.982 31.282 808.555 31.3539 809.096 31.5389C809.636 31.7239 810.132 32.018 810.552 32.4024C810.898 32.7712 811.149 33.217 811.284 33.7021C811.418 34.1872 811.433 34.6972 811.327 35.1891C811.22 35.681 810.995 36.1403 810.671 36.5282C810.347 36.916 809.933 37.2209 809.465 37.4172L811.759 40.7604H808.74L806.808 37.8948H805.601V40.7604H802.944V31.3278ZM807.291 35.865C808.136 35.865 808.74 35.3874 808.74 34.7904C808.74 34.074 808.136 33.7158 807.291 33.7158H805.601V35.9844H807.291V35.865ZM815.14 31.3278H822.869V33.477H817.797V34.9098H822.386V37.059H817.797V38.4918H822.989V40.7604H815.14V31.3278ZM712.136 37.1784C711.953 37.6004 711.651 37.9607 711.265 38.2151C710.879 38.4696 710.426 38.6073 709.962 38.6112C709.311 38.5798 708.697 38.3019 708.247 37.8351C707.798 37.3683 707.547 36.7484 707.547 36.1038C707.547 35.4592 707.798 34.8393 708.247 34.3725C708.697 33.9057 709.311 33.6278 709.962 33.5964C710.456 33.6058 710.936 33.7577 711.344 34.0335C711.751 34.3093 712.069 34.6969 712.256 35.1486H715.034C714.796 34.0048 714.156 32.9814 713.228 32.26C712.299 31.5386 711.142 31.166 709.962 31.2084C709.294 31.1869 708.629 31.2971 708.005 31.5325C707.381 31.768 706.811 32.1239 706.328 32.5796C705.844 33.0353 705.458 33.5817 705.19 34.1867C704.922 34.7918 704.78 35.4435 704.769 36.1038C704.766 36.7578 704.895 37.4059 705.15 38.0094C705.405 38.6128 705.781 39.1593 706.254 39.6162C706.728 40.073 707.289 40.431 707.905 40.6686C708.522 40.9062 709.18 41.0187 709.841 40.9992C710.995 41.0069 712.119 40.636 713.036 39.9446C713.954 39.2532 714.614 38.2803 714.913 37.1784H712.136Z" fill="white"/>
<g clip-path="url(#clip0_394_137)">
<path d="M535.988 27.2857C532.632 27.2857 530.226 24.6191 530.226 21.1905C530.226 17.7619 532.632 15.0953 535.988 15.0953C539.344 15.0953 541.687 17.7619 541.687 21.1905C541.687 24.6191 539.344 27.2857 535.988 27.2857ZM535.418 30.9048C538.141 30.9048 540.484 29.8254 541.94 27.6032C542.193 29.7619 543.776 30.5873 545.739 30.5873H547.322V27.1587H546.625C545.486 27.1587 545.232 26.5873 545.232 25.3175V11.7302H541.623V14.5238C540.42 12.5556 538.078 11.4127 535.418 11.4127C530.669 11.4127 526.3 15.4127 526.3 21.1905C526.3 26.9683 530.733 30.9048 535.418 30.9048ZM516.803 26.2064C516.803 29.3175 518.702 30.5873 520.982 30.5873H525.351V27.1587H522.121C520.792 27.1587 520.539 26.6508 520.539 25.3175V15.1587H525.351V11.7302H520.539V5.44446H516.739C516.803 5.44446 516.803 26.2064 516.803 26.2064ZM499.644 30.5873H503.443V22.5238H504.709L511.168 30.5873H515.916L507.685 20.3651L514.017 11.7937H509.775L504.646 19.0318H503.506V5.44446H499.707C499.644 5.44446 499.644 30.5873 499.644 30.5873ZM487.36 11.4127C482.105 11.4127 477.736 15.4127 477.736 21.1905C477.736 26.9683 482.105 30.9683 487.36 30.9683C492.615 30.9683 496.984 26.9683 496.984 21.1905C496.984 15.4127 492.615 11.4127 487.36 11.4127ZM487.36 27.2857C484.004 27.2857 481.598 24.6191 481.598 21.1905C481.598 17.7619 484.004 15.0953 487.36 15.0953C490.716 15.0953 493.122 17.7619 493.122 21.1905C493.122 24.6191 490.716 27.2857 487.36 27.2857Z" fill="white"/>
<path fill-rule="evenodd" clip-rule="evenodd" d="M448.23 1.25397L447.407 11.4127C447.027 11.3492 446.647 11.3492 446.204 11.3492C445.697 11.3492 445.191 11.4127 444.747 11.4762L444.304 6.5873C444.304 6.46032 444.431 6.26984 444.557 6.26984H445.381L445.001 1.31746C445.001 1.19048 445.127 1 445.254 1H447.977C448.166 1 448.293 1.12698 448.23 1.25397ZM441.391 1.7619C441.328 1.63492 441.202 1.50794 441.075 1.57143L438.542 2.52381C438.352 2.5873 438.289 2.77778 438.352 2.90476L440.442 7.4127L439.682 7.73016C439.555 7.79365 439.492 7.92064 439.555 8.11111L441.645 12.5556C442.405 12.1111 443.228 11.7937 444.114 11.6032L441.391 1.7619ZM435.186 4.61905L441.075 12.9365C440.315 13.4444 439.682 14.0159 439.112 14.6508L435.503 11.1587C435.376 11.0317 435.376 10.8413 435.503 10.7778L436.136 10.2698L432.654 6.71429C432.527 6.5873 432.527 6.39683 432.654 6.33333L434.743 4.61905C434.87 4.42857 435.06 4.49206 435.186 4.61905ZM430.248 9.38095C430.121 9.31746 429.931 9.31746 429.868 9.44444L428.538 11.7937C428.475 11.9206 428.538 12.1111 428.665 12.1746L433.16 14.3333L432.717 15.0317C432.654 15.1587 432.717 15.3492 432.844 15.4127L437.339 17.4444C437.656 16.619 438.099 15.8571 438.606 15.1587L430.248 9.38095ZM426.892 15.7937C426.892 15.6667 427.082 15.5397 427.208 15.6032L437.023 18.1429C436.769 18.9683 436.643 19.8571 436.579 20.746L431.641 20.3651C431.514 20.3651 431.387 20.2381 431.387 20.0476L431.514 19.2222L426.702 18.7778C426.575 18.7778 426.449 18.6508 426.449 18.4603L426.892 15.7937ZM426.575 22.4603C426.385 22.4603 426.322 22.5873 426.322 22.7778L426.828 25.4444C426.828 25.5714 427.018 25.6984 427.145 25.6349L431.957 24.3651L432.084 25.1905C432.084 25.3175 432.274 25.4444 432.4 25.381L437.149 24.0476C436.896 23.2222 436.706 22.3333 436.643 21.4444L426.575 22.4603ZM428.158 29.5079C428.095 29.381 428.158 29.1905 428.285 29.127L437.466 24.746C437.782 25.5714 438.289 26.3333 438.859 27.0317L434.87 29.8889C434.743 29.9524 434.553 29.9524 434.49 29.8254L433.92 29.127L429.804 31.9841C429.678 32.0476 429.488 32.0476 429.424 31.9206L428.158 29.5079ZM439.239 27.6032L432.084 34.8413C431.957 34.9683 431.957 35.1587 432.084 35.2222L434.173 36.9365C434.3 37.0635 434.49 37 434.553 36.873L437.466 32.8095L438.099 33.381C438.226 33.5079 438.416 33.4444 438.479 33.3175L441.265 29.254C440.505 28.8095 439.809 28.2381 439.239 27.6032ZM437.846 39.1587C437.719 39.0952 437.656 38.9683 437.719 38.7778L441.898 29.5714C442.658 29.9524 443.544 30.2698 444.367 30.4603L443.101 35.2222C443.038 35.3492 442.911 35.4762 442.784 35.4127L442.025 35.0952L440.695 39.9206C440.632 40.0476 440.505 40.1746 440.378 40.1111L437.846 39.1587ZM445.064 30.5873L444.241 40.746C444.241 40.873 444.367 41.0635 444.494 41.0635H447.217C447.343 41.0635 447.47 40.9365 447.47 40.746L447.09 35.7937H447.913C448.04 35.7937 448.166 35.6667 448.166 35.4762L447.723 30.5873C447.217 30.6508 446.773 30.7143 446.267 30.7143C445.887 30.6508 445.444 30.6508 445.064 30.5873ZM454.878 3.15873C454.941 3.03175 454.878 2.84127 454.752 2.77778L452.219 1.8254C452.092 1.7619 451.902 1.88889 451.902 2.01587L450.573 6.84127L449.813 6.52381C449.686 6.46032 449.496 6.5873 449.496 6.71429L448.23 11.4762C449.116 11.6667 449.939 11.9841 450.699 12.3651L454.878 3.15873ZM460.45 7.15873L453.295 14.3968C452.725 13.7619 452.029 13.1905 451.269 12.746L454.055 8.68254C454.118 8.55556 454.308 8.55556 454.435 8.61905L455.068 9.19048L457.981 5.12698C458.044 5 458.234 5 458.361 5.06349L460.45 6.77778C460.513 6.90476 460.513 7.09524 460.45 7.15873ZM464.249 12.873C464.376 12.8095 464.439 12.619 464.376 12.4921L463.046 10.1429C462.983 10.0159 462.793 9.95238 462.666 10.0794L458.551 12.9365L458.107 12.2381C458.044 12.1111 457.854 12.0476 457.727 12.1746L453.738 14.9683C454.308 15.6667 454.752 16.4286 455.131 17.254L464.249 12.873ZM465.705 16.5556L466.149 19.2222C466.149 19.3492 466.085 19.5397 465.895 19.5397L455.828 20.4921C455.765 19.6032 455.575 18.7143 455.321 17.8889L460.07 16.5556C460.197 16.4921 460.387 16.619 460.387 16.746L460.513 17.5714L465.326 16.3016C465.516 16.3016 465.642 16.4286 465.705 16.5556ZM465.262 26.3968C465.389 26.4603 465.579 26.3333 465.579 26.2064L466.022 23.5397C466.022 23.4127 465.959 23.2222 465.769 23.2222L460.83 22.7778L460.957 21.9524C460.957 21.8254 460.893 21.6349 460.703 21.6349L455.765 21.254C455.765 22.1429 455.575 23.0317 455.321 23.8571L465.262 26.3968ZM462.666 32.4921C462.603 32.619 462.413 32.6825 462.286 32.5556L453.928 26.7778C454.435 26.0794 454.878 25.3175 455.195 24.4921L459.69 26.5238C459.817 26.5873 459.88 26.7778 459.817 26.9048L459.374 27.6667L463.869 29.8254C463.996 29.8889 464.059 30.0794 463.996 30.2064L462.666 32.4921ZM451.459 29.0635L457.348 37.381C457.411 37.5079 457.601 37.5079 457.727 37.4444L459.817 35.7302C459.944 35.6032 459.944 35.4762 459.817 35.3492L456.334 31.7937L456.968 31.2857C457.094 31.1587 457.094 31.0317 456.968 30.9048L453.485 27.4127C452.915 28.0476 452.219 28.619 451.459 29.0635ZM451.459 40.3651C451.332 40.4286 451.142 40.3016 451.142 40.1746L448.483 30.3968C449.37 30.2064 450.193 29.8889 450.952 29.4444L453.042 33.8889C453.105 34.0159 453.042 34.2064 452.915 34.2698L452.155 34.5873L454.245 39.0952C454.308 39.2222 454.245 39.4127 454.118 39.4762L451.459 40.3651Z" fill="white"/>
</g>
<g clip-path="url(#clip1_394_137)">
<path d="M1041.03 30.566C1040.12 31.2559 1039.45 31.5434 1038.7 31.5434C1037.51 31.5434 1036.9 30.8995 1036.9 29.6622V24.9707H1041.03V22.1604H1036.9V18.6832L1033.43 19.5663V22.1627H1031.61V24.973H1033.43V29.975C1033.43 32.9991 1034.85 34.5952 1037.49 34.5952C1038.61 34.5952 1039.66 34.31 1040.57 33.7604L1041.1 30.6166L1041.03 30.5683L1041.03 30.566Z" fill="white"/>
<path d="M1027.38 26.8496C1026.33 26.5874 1025.66 26.3506 1025.33 26.1597C1025 25.9918 1024.84 25.7549 1024.84 25.4445C1024.84 24.8971 1025.45 24.5407 1026.45 24.5407C1027.69 24.5407 1029.3 25.088 1030.7 26.0171L1030.77 25.9941V22.9446C1029.48 22.2547 1028.08 21.8959 1026.59 21.8959C1023.53 21.8959 1021.57 23.3977 1021.57 25.6836C1021.57 27.5648 1022.62 28.6135 1025.73 29.446C1026.78 29.7312 1027.48 29.9704 1027.82 30.1612C1028.17 30.3521 1028.34 30.6143 1028.34 30.9478C1028.34 31.5181 1027.69 31.9252 1026.68 31.9252C1025.03 31.9252 1023.16 31.2099 1021.36 29.9474L1021.29 29.9957L1021.76 33.259C1023.28 34.1881 1024.77 34.5929 1026.47 34.5929C1028.01 34.5929 1029.25 34.2364 1030.21 33.5212C1031.14 32.8313 1031.61 31.9022 1031.61 30.7592C1031.61 29.7358 1031.3 28.9493 1030.7 28.3536C1030.09 27.758 1028.99 27.259 1027.38 26.8519" fill="white"/>
<path d="M1016.84 30.2578C1015.83 31.1156 1015.13 31.4491 1014.27 31.4491C1012.99 31.4491 1012.29 30.6143 1012.29 29.1631V22.1604H1008.74V29.9014C1008.74 32.7829 1010.3 34.5928 1012.75 34.5928C1014.44 34.5928 1015.65 33.8546 1016.93 32.139V34.3307H1020.36V22.1581H1016.84V30.2578H1016.84Z" fill="white"/>
<path d="M1006.88 21.9672C1005.59 21.9672 1004.61 22.7767 1002.96 25.1593V21.9902L999.503 22.4433V34.3284H1003.05V27.2061C1004.56 26.1574 1005.73 25.7296 1007.02 25.7296C1007.32 25.7296 1007.57 25.7296 1007.86 25.8009L1007.64 22.0615C1007.29 21.9902 1007.13 21.9672 1006.87 21.9672" fill="white"/>
<path d="M999.969 17.6575H984.548V21.1117H990.38V34.3307H994.135V21.1117H999.969V17.6575Z" fill="white"/>
<path d="M980.067 30.6143C979.11 31.2812 978.317 31.5434 977.477 31.5434C975.774 31.5434 974.56 30.2325 974.56 28.303C974.56 26.3735 975.844 24.9684 977.686 24.9684C978.526 24.9684 979.25 25.1593 980.067 25.6353V30.6143ZM980.067 23.1585C979.063 22.372 978.013 21.9672 976.893 21.9672C975.283 21.9672 973.906 22.5859 972.812 23.8254C971.692 25.088 971.131 26.6357 971.131 28.5169C971.131 30.2555 971.62 31.686 972.625 32.829C973.605 33.9972 974.816 34.5676 976.263 34.5676C977.709 34.5676 978.945 33.9719 980.137 32.6151V34.3307H983.59V16.2753L980.067 17.2274V23.1585Z" fill="white"/>
<path d="M966.022 21.8729C964.412 21.8729 963.152 22.6111 961.868 24.3268V21.9925L958.415 22.4456V34.3307H961.961V26.208C962.965 25.3502 963.641 25.042 964.504 25.042C965.788 25.042 966.511 25.8768 966.511 27.3049V34.3307H970.034V26.5667C970.034 23.6851 968.471 21.8752 966.02 21.8752" fill="white"/>
<path d="M950.883 31.5917C949.18 31.5917 947.873 30.1636 947.873 28.2571C947.873 26.3506 949.132 24.8994 950.905 24.8994C952.678 24.8994 953.915 26.3046 953.915 28.2111C953.915 30.1176 952.631 31.594 950.883 31.594M950.905 21.8246C949.062 21.8246 947.522 22.4433 946.285 23.6828C945.048 24.9454 944.442 26.4701 944.442 28.2571C944.442 30.044 945.048 31.5917 946.262 32.806C947.454 34.0455 948.993 34.6642 950.883 34.6642C952.772 34.6642 954.266 34.0455 955.503 32.783C956.739 31.5204 957.345 29.9957 957.345 28.2088C957.345 26.4219 956.739 24.8741 955.548 23.6598C954.334 22.4456 952.795 21.8269 950.905 21.8269" fill="white"/>
<path d="M941.386 22.1581L938.703 29.8048L935.763 22.1581H931.936L936.905 33.8293C936.367 35.1402 935.599 35.7105 934.315 35.7105C933.661 35.7105 933.055 35.5449 932.33 35.1632L932.283 35.2115L932.961 38.4978C933.614 38.783 934.267 38.9026 935.013 38.9026C937.464 38.9026 939.212 37.4721 940.356 34.448L945.138 22.1581H941.383H941.386Z" fill="white"/>
<path d="M926.78 24.4211C928.156 24.4211 929.066 25.4698 929.228 27.1601H924.189C924.376 25.5158 925.379 24.4211 926.78 24.4211ZM927.807 31.7573C925.87 31.7573 924.588 30.8282 924.214 29.2092H932.449C932.472 28.8044 932.519 28.3744 932.519 28.1858C932.519 26.2793 932.006 24.7316 931.003 23.5656C929.978 22.3973 928.6 21.827 926.852 21.827C925.104 21.827 923.678 22.4456 922.536 23.6622C921.391 24.9017 920.81 26.4242 920.81 28.2111C920.81 30.1406 921.394 31.6883 922.561 32.8566C923.703 34.0249 925.243 34.5952 927.181 34.5952C928.697 34.5952 929.863 34.333 931.287 33.6431L932.242 30.6189L932.172 30.5706C930.656 31.3571 929.233 31.7619 927.809 31.7619" fill="white"/>
<path d="M913.6 31.3755H911.383V27.2084H913.505C915.3 27.2084 916.305 27.9466 916.305 29.3035C916.305 30.566 915.278 31.3755 913.6 31.3755ZM911.383 20.6104H913.413C914.884 20.6104 915.769 21.3026 915.769 22.5169C915.769 23.7312 914.789 24.566 913.273 24.566H911.383V20.6127V20.6104ZM917.051 25.6354C918.544 24.8488 919.362 23.5863 919.362 22.0615C919.362 19.2972 917.31 17.6552 913.856 17.6552H907.815V34.3284H913.881C915.726 34.3284 917.217 33.8984 918.337 33.0176C919.434 32.1598 919.993 30.9938 919.993 29.5403C919.993 27.7304 918.99 26.3713 917.053 25.6331" fill="white"/>
<path d="M897.831 16.8112L894.272 13.1776C894.245 13.15 894.202 13.1385 894.166 13.1569C894.133 13.173 894.108 13.2075 894.108 13.2489V38.7738C894.108 38.8129 894.13 38.8497 894.166 38.8658C894.18 38.8727 894.191 38.8727 894.205 38.8727C894.23 38.8727 894.257 38.8635 894.275 38.8451L897.834 35.2115C897.964 35.0804 898.077 34.7999 898.077 34.609V17.4183C898.077 17.2298 897.962 16.9492 897.834 16.8135" fill="white"/>
<path d="M891.425 11.0251H878.808C878.702 11.0251 878.612 10.9354 878.612 10.825V0.1013C878.612 0.062204 878.587 0.025408 878.554 0.0093097C878.515 -0.00908833 878.475 0.00241044 878.448 0.0300075L874.889 3.66362C874.76 3.7947 874.643 4.08217 874.643 4.26615V14.9761C874.643 15.0313 874.686 15.075 874.74 15.075H887.348C887.454 15.075 887.542 15.1647 887.542 15.2751V17.1977C887.542 17.4782 887.319 17.7059 887.046 17.7059H874.74C874.715 17.7059 874.69 17.7151 874.672 17.7335C874.654 17.7519 874.645 17.7772 874.645 17.8048V31.4699C874.645 33.0407 875.898 34.317 877.436 34.317H887.048C887.321 34.317 887.544 34.5447 887.544 34.823V36.7456C887.544 36.8537 887.456 36.9456 887.35 36.9456H877.436C874.479 36.9456 872.073 34.4895 872.073 31.4699V6.78208C872.073 6.74299 872.048 6.70619 872.014 6.69009C871.976 6.67169 871.935 6.68319 871.908 6.71079L868.345 10.3444C868.216 10.4755 868.102 10.763 868.102 10.9469V32.6543C868.102 37.2561 871.767 41.0001 876.274 41.0001H891.425C891.479 41.0001 891.522 40.9564 891.522 40.9012L891.531 11.1332C891.531 11.078 891.477 11.0251 891.425 11.0251ZM887.544 29.7589C887.544 30.0372 887.321 30.2649 887.048 30.2649H879.13C878.858 30.2649 878.635 30.0372 878.635 29.7589V22.2663C878.635 21.9881 878.858 21.7604 879.13 21.7604H887.048C887.321 21.7604 887.544 21.9881 887.544 22.2663V29.7589Z" fill="white"/>
</g>
<path d="M611.329 15.6483C611.329 16.4783 611.419 17.1513 611.576 17.6448C611.755 18.1383 611.98 18.6767 612.294 19.2599C612.406 19.4394 612.451 19.6188 612.451 19.7759C612.451 20.0002 612.316 20.2245 612.025 20.4488L610.611 21.391C610.41 21.5256 610.208 21.5929 610.028 21.5929C609.804 21.5929 609.58 21.4807 609.355 21.2788C609.041 20.9423 608.772 20.5834 608.548 20.2245C608.323 19.8432 608.099 19.417 607.852 18.901C606.103 20.9648 603.904 21.9967 601.257 21.9967C599.373 21.9967 597.87 21.4583 596.771 20.3815C595.671 19.3048 595.111 17.8691 595.111 16.0745C595.111 14.1678 595.784 12.62 597.152 11.4535C598.52 10.287 600.337 9.70375 602.648 9.70375C603.411 9.70375 604.196 9.77104 605.026 9.88321C605.856 9.99537 606.708 10.1748 607.605 10.3767V8.73916C607.605 7.0343 607.247 5.84539 606.551 5.14998C605.833 4.45458 604.622 4.11809 602.895 4.11809C602.11 4.11809 601.302 4.20782 600.472 4.40972C599.642 4.61161 598.834 4.85836 598.049 5.17241C597.69 5.32944 597.421 5.41917 597.264 5.46404C597.107 5.5089 596.995 5.53133 596.905 5.53133C596.591 5.53133 596.434 5.30701 596.434 4.83593V3.73675C596.434 3.37783 596.479 3.10864 596.591 2.95161C596.703 2.79459 596.905 2.63756 597.219 2.48053C598.004 2.07675 598.947 1.74027 600.046 1.47108C601.145 1.17946 602.311 1.04486 603.545 1.04486C606.215 1.04486 608.166 1.65054 609.423 2.86188C610.656 4.07323 611.284 5.91268 611.284 8.38024V15.6483H611.329ZM602.222 19.058C602.962 19.058 603.725 18.9234 604.532 18.6543C605.34 18.3851 606.058 17.8916 606.663 17.2186C607.022 16.7924 607.291 16.3213 607.426 15.7829C607.561 15.2445 607.65 14.594 607.65 13.8313V12.8891C607 12.7321 606.304 12.5975 605.587 12.5078C604.869 12.4181 604.173 12.3732 603.478 12.3732C601.975 12.3732 600.876 12.6648 600.136 13.2705C599.395 13.8762 599.036 14.7286 599.036 15.8502C599.036 16.9045 599.306 17.6897 599.866 18.228C600.405 18.7888 601.19 19.058 602.222 19.058ZM620.235 21.4807C619.831 21.4807 619.562 21.4134 619.382 21.2564C619.203 21.1218 619.046 20.8078 618.911 20.3815L613.64 3.04134C613.505 2.5927 613.438 2.30108 613.438 2.14405C613.438 1.78513 613.617 1.58324 613.976 1.58324H616.175C616.601 1.58324 616.892 1.65054 617.049 1.80756C617.229 1.94216 617.364 2.25621 617.498 2.68243L621.267 17.5326L624.766 2.68243C624.878 2.23378 625.013 1.94216 625.192 1.80756C625.372 1.67297 625.686 1.58324 626.09 1.58324H627.884C628.311 1.58324 628.602 1.65054 628.782 1.80756C628.961 1.94216 629.118 2.25621 629.208 2.68243L632.752 17.7121L636.633 2.68243C636.768 2.23378 636.925 1.94216 637.082 1.80756C637.261 1.67297 637.553 1.58324 637.956 1.58324H640.043C640.402 1.58324 640.603 1.7627 640.603 2.14405C640.603 2.25621 640.581 2.36837 640.559 2.50297C640.536 2.63756 640.491 2.81702 640.402 3.06378L634.995 20.404C634.861 20.8526 634.704 21.1442 634.524 21.2788C634.345 21.4134 634.053 21.5032 633.672 21.5032H631.743C631.316 21.5032 631.025 21.4359 630.845 21.2788C630.666 21.1218 630.509 20.8302 630.419 20.3815L626.942 5.91268L623.488 20.3591C623.375 20.8078 623.241 21.0994 623.061 21.2564C622.882 21.4134 622.568 21.4807 622.164 21.4807H620.235ZM649.06 22.0864C647.894 22.0864 646.727 21.9518 645.606 21.6826C644.484 21.4134 643.609 21.1218 643.026 20.7853C642.667 20.5834 642.42 20.3591 642.331 20.1572C642.241 19.9553 642.196 19.731 642.196 19.5291V18.3851C642.196 17.914 642.376 17.6897 642.712 17.6897C642.847 17.6897 642.981 17.7121 643.116 17.757C643.25 17.8018 643.452 17.8916 643.677 17.9813C644.439 18.3178 645.269 18.587 646.144 18.7664C647.042 18.9459 647.916 19.0356 648.814 19.0356C650.227 19.0356 651.326 18.7888 652.089 18.2953C652.851 17.8018 653.255 17.084 653.255 16.1643C653.255 15.5362 653.053 15.0202 652.65 14.594C652.246 14.1678 651.483 13.7864 650.384 13.4275L647.131 12.4181C645.494 11.9021 644.282 11.1394 643.542 10.13C642.802 9.14294 642.42 8.04375 642.42 6.87727C642.42 5.93511 642.622 5.10512 643.026 4.38728C643.43 3.66945 643.968 3.04134 644.641 2.54783C645.314 2.03189 646.077 1.65054 646.974 1.38135C647.872 1.11216 648.814 1 649.801 1C650.294 1 650.81 1.02243 651.304 1.08973C651.82 1.15703 652.291 1.24676 652.762 1.33649C653.21 1.44865 653.637 1.56081 654.04 1.6954C654.444 1.83 654.758 1.96459 654.983 2.09918C655.297 2.27864 655.521 2.4581 655.656 2.65999C655.79 2.83945 655.857 3.08621 655.857 3.40026V4.45458C655.857 4.92566 655.678 5.17241 655.341 5.17241C655.162 5.17241 654.87 5.08269 654.489 4.90323C653.21 4.31999 651.775 4.02837 650.182 4.02837C648.903 4.02837 647.894 4.23026 647.199 4.65647C646.503 5.08269 646.144 5.73322 646.144 6.65295C646.144 7.28105 646.369 7.81943 646.817 8.24565C647.266 8.67186 648.096 9.09807 649.285 9.47942L652.47 10.4889C654.085 11.0048 655.252 11.7227 655.947 12.6424C656.643 13.5621 656.979 14.6164 656.979 15.7829C656.979 16.7475 656.777 17.6224 656.396 18.3851C655.992 19.1478 655.454 19.8207 654.758 20.3591C654.063 20.9199 653.233 21.3237 652.268 21.6153C651.259 21.9294 650.204 22.0864 649.06 22.0864Z" fill="white"/>
<path fill-rule="evenodd" clip-rule="evenodd" d="M653.3 32.9885C645.92 38.4396 635.197 41.3334 625.978 41.3334C613.057 41.3334 601.414 36.5553 592.621 28.6142C591.925 27.9861 592.553 27.1337 593.383 27.6272C602.895 33.1456 614.627 36.488 626.763 36.488C634.951 36.488 643.946 34.7831 652.223 31.2837C653.457 30.7229 654.512 32.0912 653.3 32.9885Z" fill="white"/>
<path fill-rule="evenodd" clip-rule="evenodd" d="M656.373 29.4891C655.431 28.2777 650.137 28.9058 647.737 29.1974C647.019 29.2872 646.907 28.6591 647.557 28.188C651.775 25.2269 658.706 26.0793 659.514 27.0664C660.321 28.0758 659.29 35.0074 655.341 38.3274C654.736 38.8434 654.153 38.5742 654.422 37.9012C655.319 35.6804 657.316 30.678 656.373 29.4891Z" fill="white"/>
<path fill-rule="evenodd" clip-rule="evenodd" d="M29.141 23.567C27.4949 22.2199 25.495 20.7629 23.0189 19.1821C21.3048 18.0412 19.3185 16.8041 17.0601 15.2509C17.0465 15.0447 16.9921 14.8522 16.9921 14.646C16.9921 9.35395 21.1687 5.40893 26.6922 5.40893C29.6988 5.40893 32.3517 6.75601 34.0387 8.83161V9.21649L30.8144 12.0206H30.447C29.5627 11.0309 28.1887 10.2887 26.665 10.2887C24.2842 10.2887 22.4067 12.1306 22.4067 14.646C22.4067 17.1753 24.2842 19.0034 26.665 19.0034C28.1887 19.0034 29.5627 18.2749 30.447 17.2852H30.8144L34.0387 20.0756V20.4605C32.8551 21.9038 31.1953 23.0447 29.141 23.567ZM19.0056 20.3643C20.298 21.9588 22.121 23.1134 24.2706 23.6082C22.8149 22.7835 21.4136 21.9725 20.1076 21.079C19.713 20.8316 19.3729 20.5979 19.0056 20.3643ZM52.5273 23.0997C52.0375 23.5395 51.2348 23.8969 50.2689 23.8969C48.2146 23.8969 47.0582 23.3746 45.6161 21.0378C44.9223 19.8832 43.4122 17.3127 42.2422 17.3127H41.7524V23.567H36.4467V5.73883H44.4325C49.0173 5.73883 51.4797 8.03436 51.4797 11.6907C51.4797 14.0412 50.1737 15.6907 48.2146 16.5704C48.5819 16.7629 49.0173 17.2027 49.5479 18.0275C49.8744 18.5498 50.2417 19.1959 50.8675 19.1959C51.262 19.1959 51.3981 19.0859 51.5613 19.0034L51.8606 19.1959L52.6633 22.7148L52.5273 23.0997ZM44.2149 10.1237H41.7524V13.7526H44.2149C45.208 13.7526 46.0651 13.1753 46.0651 11.9931C46.0651 10.7835 45.208 10.1237 44.2149 10.1237ZM63.4245 23.8969C58.0507 23.8969 53.6973 19.7595 53.6973 14.646C53.6973 9.54639 58.0507 5.40893 63.4245 5.40893C68.812 5.40893 73.1518 9.54639 73.1518 14.646C73.1518 19.7595 68.812 23.8969 63.4245 23.8969ZM67.7372 14.646C67.7372 12.2406 65.8189 10.2887 63.4245 10.2887C61.0437 10.2887 59.1119 12.2406 59.1119 14.646C59.1119 17.0653 61.0437 19.0172 63.4245 19.0172C65.8189 19.0172 67.7372 17.0653 67.7372 14.646ZM99.9528 6.1512L93.4634 23.567H90.2528L86.5795 13.8625L82.9335 23.567H79.7228L73.2334 6.1512L73.4783 5.73883H78.5392L81.6819 15.5533L84.9742 5.73883H88.1849L91.518 15.6082L94.647 5.73883H99.7079L99.9528 6.1512ZM110.17 23.567H102.048V5.73883H110.17C115.87 5.73883 119.38 9.29897 119.38 14.6186C119.38 19.9931 115.87 23.567 110.17 23.567ZM109.952 10.1237H107.354V19.1821H109.952C112.279 19.1821 113.966 17.5601 113.966 14.646C113.966 11.7457 112.279 10.1237 109.952 10.1237ZM147.487 23.567H142.181V10.1237H136.876V5.73883H152.793V10.1237H147.487V23.567ZM166.574 16.5567L170.112 23.1546L169.867 23.567H164.588L161.296 17.3127H160.031V23.567H154.725V5.73883H162.711C167.295 5.73883 169.758 8.04811 169.758 11.6907C169.758 14.0275 168.465 15.6495 166.574 16.5567ZM162.493 10.1375H160.031V13.7526H162.493C163.486 13.7526 164.343 13.1753 164.343 11.9931C164.343 10.7973 163.486 10.1375 162.493 10.1375ZM172.969 5.73883H178.274V23.567H172.969V5.73883ZM198.191 23.1546L197.947 23.567H192.396L187.893 16.9278L186.927 18.0825V23.567H181.621V5.73883H186.927V12.0756L191.838 5.73883H197.484L197.729 6.1512L191.729 13.7251L198.191 23.1546ZM212.898 5.73883V10.1237H204.939V12.5979H210.993V16.7079H204.939V19.1821H212.98V23.567H199.634V5.73883H212.898ZM120.645 20.7354V20.3505L123.108 17.2302H123.489C124.455 18.1787 126.427 19.2509 128.073 19.2509C129.352 19.2509 130.182 18.8385 130.182 18.1512C130.182 17.2027 129.012 17.1203 127.257 16.6254C124.577 15.8557 121.421 14.3162 121.421 10.811C121.421 7.53952 124.291 5.29897 128.414 5.29897C131.366 5.29897 134.046 6.43986 135.352 7.95189V8.33677L132.862 11.3471H132.495C131.733 10.646 130.264 9.54639 128.522 9.54639C127.502 9.54639 126.835 9.93127 126.835 10.5636C126.835 11.4296 128.046 11.8419 129.216 12.1993C132.223 13.079 135.624 14.1237 135.624 18.1512C135.624 21.8625 132.25 23.7732 128.359 23.7732C125.067 23.7732 122.224 22.5086 120.645 20.7354ZM21.4 30.0412C7.08799 22.4536 3.76847 16.378 3.11545 13.6014C10.2851 21.2715 18.2437 25.299 22.9101 27.9244C33.0319 33.3677 35.6032 37.189 36.8956 40.1581C32.066 34.2887 25.3725 32.2405 21.4 30.0412ZM19.4682 22.2749C3.80928 12.4605 0.707438 4.90034 0 2C9.83611 12.7766 17.305 17.0103 22.3795 20.378C32.8278 27.0584 35.0318 31.5533 36.2426 35.0722C31.2361 27.9656 24.6107 25.7938 19.4682 22.2749Z" fill="white"/>
<path d="M300.707 12.114C295.038 12.1239 290.685 16.5017 290.701 22.1762C290.716 27.8252 295.104 32.1646 300.797 32.1504C306.459 32.1376 310.835 27.74 310.812 22.0867C310.79 16.4335 306.403 12.1026 300.707 12.114ZM302.943 27.7173C300.821 28.6619 298.814 28.2855 297.071 26.7656C294.814 24.7941 294.442 21.0072 296.206 18.4704C296.691 17.7595 297.336 17.1723 298.089 16.756C298.842 16.3396 299.682 16.1056 300.542 16.0729C301.402 16.0402 302.258 16.2095 303.04 16.5675C303.823 16.9254 304.511 17.4618 305.048 18.1337C305.933 19.2189 306.393 20.5939 306.392 22.6194C306.308 24.6676 305.314 26.6605 302.943 27.7173Z" fill="white"/>
<path d="M322.597 12.1069C316.892 12.1154 312.512 16.4931 312.528 22.1919C312.539 27.8153 316.95 32.1604 322.637 32.1533C328.278 32.1462 332.658 27.7897 332.664 22.1876C332.668 16.4761 328.296 12.0998 322.597 12.1069ZM321.87 28.1406C319.724 27.9005 317.893 26.2656 317.224 24.0001C316.372 21.1081 317.579 17.9817 320.032 16.7133C323.592 14.8668 327.772 17.2204 328.193 21.3013C328.221 21.5853 328.227 21.8694 328.231 21.949C328.229 25.8665 325.393 28.5355 321.87 28.1406Z" fill="white"/>
<path d="M367.961 25.1534C372.386 23.3211 376.813 21.4873 381.322 19.6223C380.975 18.8269 380.707 18.1181 380.369 17.4434C377.823 12.3895 372.349 10.6041 367.618 13.3611C364.514 15.1707 363.129 18.0599 362.93 21.5626C362.517 29.1391 369.724 34.274 376.69 31.372C378.519 30.6093 379.957 29.3536 381.107 27.7088L377.698 25.4503C374.894 29.6121 369.319 28.6675 367.961 25.1534ZM371.186 16.1721C373.189 15.604 375.258 16.3965 376.098 18.1181L367.216 21.8112C366.996 19.28 368.728 16.8681 371.186 16.1721Z" fill="white"/>
<path d="M289.09 15.1722H288.28C284.138 15.1722 279.996 15.1722 275.854 15.1722C275.596 15.1722 275.339 15.2048 275.08 15.2219H274.938C274.898 15.2446 274.826 15.2659 274.826 15.2901C274.807 16.594 274.79 17.8994 274.8 19.2047C274.8 19.2658 275.053 19.3241 275.188 19.3837C275.351 19.4087 275.515 19.4253 275.68 19.4334C278.748 19.4334 281.817 19.4334 284.887 19.4334C284.671 22.1322 283.509 24.2941 281.316 25.9176C276.761 29.2926 267.927 28.7144 264.666 21.2771C262.775 16.9662 263.326 12.8015 266.393 9.18226C269.416 5.61275 274.134 4.36703 278.43 5.93376C279.867 6.45789 281.164 7.3627 282.438 8.04734L285.429 5.24485C285.429 5.24485 285.213 5.08435 285.13 5.00622C279.67 -0.0533122 271.285 -0.354442 265.154 4.29601C257.789 9.88821 256.886 20.4561 263.249 27.1562C266.997 31.1008 271.661 32.6519 277.028 32.0553C282.979 31.3934 287.615 27.294 288.922 21.6322C289.422 19.5134 289.479 17.3141 289.09 15.1722Z" fill="white"/>
<path d="M353.601 12.7688H349.469C349.446 13.2745 349.426 13.7489 349.401 14.3114L348.529 13.6494L347.534 12.9847C345.665 11.9435 343.689 11.8768 341.686 12.4407C337.867 13.5145 334.918 16.9434 334.523 20.8638C334.084 25.206 335.739 28.6036 339.469 30.8877C342.516 32.7527 346.684 32.6944 349.242 30.0354C349.263 30.0141 349.326 30.0354 349.384 30.0354C349.384 30.8593 349.455 31.6859 349.371 32.4956C349.122 34.8776 347.85 36.4202 345.753 36.9898C343.516 37.5977 341.282 36.8705 339.919 35.0637C339.594 34.6376 339.333 34.1561 339.01 33.6433L335.255 35.2057C337.371 40.2823 342.911 42.3874 347.955 40.4613L350.307 39.102C350.314 39.1038 350.322 39.1041 350.329 39.1029C350.337 39.1017 350.344 39.0989 350.35 39.0947C350.356 39.0906 350.362 39.0852 350.366 39.0788C350.37 39.0725 350.373 39.0654 350.374 39.0579L350.504 38.9372L350.646 38.7951L351.127 38.2937L351.119 38.2767C351.48 37.8179 351.899 37.3932 352.189 36.8932C353.236 35.0878 353.627 33.1049 353.628 31.0354C353.628 25.1208 353.628 19.2057 353.628 13.2901C353.632 13.1338 353.614 12.9719 353.601 12.7688ZM349.206 24.8949C348.243 27.2187 346.162 28.4119 343.721 28.1519C341.473 27.9133 339.516 26.0568 339.009 23.6577C338.902 23.1535 338.867 22.6322 338.829 22.297C338.912 19.9234 339.706 18.1053 341.598 16.8923C342.158 16.5232 342.785 16.2691 343.444 16.1448C344.103 16.0204 344.78 16.0284 345.435 16.1681C346.091 16.3078 346.712 16.5765 347.263 16.9586C347.814 17.3407 348.283 17.8285 348.644 18.3937C349.972 20.4447 350.135 22.6521 349.206 24.8949Z" fill="white"/>
<path d="M356.601 2.08868V31.5169H360.933V2.08868H356.601Z" fill="white"/>
<defs>
<clipPath id="clip0_394_137">
<rect width="121" height="40" fill="white" transform="translate(426.322 1)"/>
</clipPath>
<clipPath id="clip1_394_137">
<rect width="173" height="41" fill="white" transform="translate(868.102)"/>
</clipPath>
</defs>
</svg>
