<svg width="107" height="97" viewBox="0 0 107 97" fill="none" xmlns="http://www.w3.org/2000/svg">
<path d="M92.6589 16.4209C94.9356 16.7807 96.7682 18.4827 97.2951 20.7267L100.42 34.0321C95.8825 32.6506 83.3691 31.9605 78.7564 31.9603C74.2198 31.9603 70.5131 32.6511 67.6395 34.0321C64.7657 35.4136 63.3246 37.3436 63.3246 39.8159C63.3252 41.8501 64.2722 43.4123 66.1606 44.5026C68.0513 45.5933 71.2313 46.6481 75.6933 47.6661L81.8195 48.9763C89.8344 50.7213 96.0336 53.449 100.42 57.1567C104.806 60.7922 107 65.7362 107 71.9891C107 76.9336 105.675 81.2597 103.028 84.9681C100.457 88.6038 96.7924 91.4427 92.0279 93.4787C87.2638 95.4419 81.7427 96.4238 75.4662 96.4239C68.8867 96.4239 63.0223 95.7338 57.8797 94.3522C52.8135 92.898 49.1071 91.1527 46.7629 89.1169V73.4058C49.6367 75.7327 53.6104 77.6626 58.6773 79.1896C63.8195 80.7163 68.7746 81.4797 73.5386 81.4797C78.6042 81.4795 82.4983 80.7892 85.2205 79.408C87.943 77.9537 89.3027 75.917 89.3027 73.2993C89.3027 71.0452 88.2461 69.3001 86.1289 68.064C84.0873 66.7553 80.9114 65.6273 76.6017 64.6821L70.2484 63.2654C62.4595 61.5931 56.4076 59.0117 52.097 55.5217C51.4923 55.022 50.9329 54.4902 50.4131 53.9346L29.7413 95.1138H11.0249L42.675 32.7219L33.5135 28.6433C28.8938 26.5867 23.8934 25.5239 18.8365 25.5239C14.5732 25.5239 10.3865 26.6568 6.7049 28.8067L0 32.7219L8.19888 26.1586C10.5285 24.2937 13.1429 22.8156 15.9419 21.7808C22.1219 19.4959 28.6585 18.3263 35.2474 18.3263H50.9436H60.5385L59.9954 17.992C52.9354 13.6465 47.23 7.41493 43.5225 0C46.2676 4.57513 50.5588 8.01737 55.6204 9.70459L57.8718 10.455C59.6466 11.0466 61.4671 11.4907 63.3149 11.7828L92.6589 16.4209Z" fill="white"/>
</svg>
