<svg xmlns="http://www.w3.org/2000/svg" viewBox="0 0 24 24" fill="#dbe3ff">
  <path d="M21.5 11.2a2.4 2.4 0 0 0-3.95-1.83 8.9 8.9 0 0 0-5.2-1.67l1.03-3.27 2.77.65a1.8 1.8 0 1 0 .35-1.37l-3.47-.81a.8.8 0 0 0-.95.53l-1.3 4.12a9.02 9.02 0 0 0-4.34 1.67A2.4 2.4 0 1 0 3 13.24a4.83 4.83 0 0 0-.05.66c0 3.3 4.06 5.98 9.05 5.98s9.05-2.68 9.05-5.98a4.86 4.86 0 0 0-.06-.75 2.4 2.4 0 0 0 .51-1.95zm-14.7 3.34a1.3 1.3 0 1 1 0-2.6 1.3 1.3 0 0 1 0 2.6zm6.81 3.02c-1.56 0-2.96-.77-3.46-1.92a.74.74 0 0 1 1.36-.58c.24.57 1.05 1 2.1 1s1.86-.43 2.1-1a.74.74 0 1 1 1.36.58c-.5 1.15-1.9 1.92-3.46 1.92zm3.58-3.02a1.3 1.3 0 1 1 0-2.6 1.3 1.3 0 0 1 0 2.6z"/>
</svg>
