<svg xmlns="http://www.w3.org/2000/svg" viewBox="0 0 24 24" fill="#dbe3ff">
  <path d="M12 2a10 10 0 1 0 10 10A10.01 10.01 0 0 0 12 2zm7.92 9h-3.05a15.9 15.9 0 0 0-1.02-4.58A8.03 8.03 0 0 1 19.92 11zM12 4.04c.73.96 1.65 3.12 1.87 6.96h-3.74C10.35 7.16 11.27 5 12 4.04zM8.15 6.42A15.9 15.9 0 0 0 7.13 11H4.08a8.03 8.03 0 0 1 4.07-4.58zM4.08 13h3.05a15.9 15.9 0 0 0 1.02 4.58A8.03 8.03 0 0 1 4.08 13zM12 19.96c-.73-.96-1.65-3.12-1.87-6.96h3.74c-.22 3.84-1.14 6-1.87 6.96zm3.85-2.38A15.9 15.9 0 0 0 16.87 13h3.05a8.03 8.03 0 0 1-4.07 4.58z"/>
</svg>
