<svg width="164" height="42" viewBox="0 0 164 42" fill="none" xmlns="http://www.w3.org/2000/svg">
<path d="M47.5237 27.8247C47.5237 25.2639 48.0818 22.9985 49.1981 21.0286C50.3143 19.0259 51.8082 17.4828 53.6796 16.3993C55.5838 15.3159 57.6686 14.7742 59.934 14.7742C62.1994 14.7742 64.2021 15.2666 65.9422 16.2516C67.6822 17.2037 69.0447 18.5826 70.0297 20.3884C71.0146 22.1613 71.5071 24.2461 71.5071 26.6428V30.0408H54.8615C54.8615 30.993 55.2062 31.8958 55.8957 32.7494C56.618 33.5702 57.5701 34.2269 58.7521 34.7193C59.934 35.2118 61.2144 35.458 62.5933 35.458C65.8765 35.458 68.7164 34.6537 71.1131 33.0449V38.9546C70.1938 39.7097 68.9134 40.3171 67.2718 40.7768C65.6631 41.2036 63.923 41.417 62.0516 41.417C59.2281 41.417 56.7165 40.8753 54.5168 39.7918C52.3171 38.7084 50.5934 37.1489 49.3458 35.1133C48.1311 33.0778 47.5237 30.6482 47.5237 27.8247ZM64.5632 25.2639C64.4976 23.8193 64.0379 22.6373 63.1843 21.718C62.3307 20.7988 61.2308 20.3391 59.8847 20.3391C58.473 20.3391 57.3075 20.7988 56.3882 21.718C55.4689 22.6373 54.96 23.8193 54.8615 25.2639H64.5632Z" fill="white"/>
<path d="M86.1032 41.417C83.7065 41.417 81.5068 40.8588 79.504 39.7426C77.5013 38.6263 75.909 37.0668 74.727 35.0641C73.5779 33.0285 73.0034 30.7139 73.0034 28.1202C73.0034 25.4937 73.5779 23.179 74.727 21.1763C75.909 19.1408 77.5013 17.5649 79.504 16.4486C81.5068 15.3323 83.7065 14.7742 86.1032 14.7742C87.7447 14.7742 89.2386 15.004 90.5847 15.4636C91.9308 15.8904 92.965 16.4486 93.6873 17.138V23.294C91.783 21.7509 89.6326 20.9793 87.2359 20.9793C85.2331 20.9793 83.5587 21.636 82.2126 22.9492C80.8994 24.2625 80.2427 25.9861 80.2427 28.1202C80.2427 30.2542 80.8994 31.9779 82.2126 33.2912C83.5587 34.5716 85.2331 35.2118 87.2359 35.2118C89.6326 35.2118 91.783 34.4403 93.6873 32.8972V39.1023C92.9321 39.7918 91.8815 40.3499 90.5354 40.7768C89.1893 41.2036 87.7119 41.417 86.1032 41.417Z" fill="white"/>
<path d="M119.451 15.3651V41.417H112.556V37.3787C111.735 38.5278 110.668 39.4963 109.355 40.2843C108.042 41.0394 106.515 41.417 104.775 41.417C102.148 41.417 100.031 40.629 98.4219 39.0531C96.8132 37.4444 96.0088 35.1954 96.0088 32.3062V15.3651H103.199V30.0408C103.199 31.6824 103.593 32.9136 104.381 33.7344C105.169 34.5552 106.301 34.9656 107.779 34.9656C108.665 34.9656 109.503 34.8014 110.291 34.4731C111.078 34.1448 111.735 33.6851 112.26 33.0942V15.3651H119.451Z" fill="white"/>
<path d="M123.08 15.3651H129.975V19.7481C130.533 18.3692 131.419 17.253 132.634 16.3993C133.849 15.5457 135.359 15.1189 137.165 15.1189C137.986 15.1189 138.659 15.2338 139.184 15.4636V22.2598C138.265 21.9971 137.313 21.8658 136.328 21.8658C133.57 21.8658 131.551 22.6209 130.27 24.1312V41.417H123.08V15.3651Z" fill="white"/>
<path d="M139.103 27.8247C139.103 25.2639 139.661 22.9985 140.777 21.0286C141.893 19.0259 143.387 17.4828 145.258 16.3993C147.163 15.3159 149.247 14.7742 151.513 14.7742C153.778 14.7742 155.781 15.2666 157.521 16.2516C159.261 17.2037 160.624 18.5826 161.609 20.3884C162.593 22.1613 163.086 24.2461 163.086 26.6428V30.0408H146.44C146.44 30.993 146.785 31.8958 147.475 32.7494C148.197 33.5702 149.149 34.2269 150.331 34.7193C151.513 35.2118 152.793 35.458 154.172 35.458C157.455 35.458 160.295 34.6537 162.692 33.0449V38.9546C161.773 39.7097 160.492 40.3171 158.851 40.7768C157.242 41.2036 155.502 41.417 153.63 41.417C150.807 41.417 148.295 40.8753 146.096 39.7918C143.896 38.7084 142.172 37.1489 140.925 35.1133C139.71 33.0778 139.103 30.6482 139.103 27.8247ZM156.142 25.2639C156.076 23.8193 155.617 22.6373 154.763 21.718C153.91 20.7988 152.81 20.3391 151.464 20.3391C150.052 20.3391 148.886 20.7988 147.967 21.718C147.048 22.6373 146.539 23.8193 146.44 25.2639H156.142Z" fill="white"/>
<path d="M40.2258 7.12876C41.2142 7.28498 42.0097 8.02384 42.2385 8.99801L43.5949 14.7743C41.6253 14.1745 36.1928 13.8749 34.1903 13.8749C32.2209 13.8749 30.6117 14.1747 29.3642 14.7743C28.1166 15.374 27.491 16.2119 27.491 17.2852C27.4912 18.1683 27.9023 18.8465 28.7221 19.3198C29.5429 19.7933 30.9235 20.2512 32.8606 20.6932L35.5201 21.262C38.9996 22.0195 41.6909 23.2037 43.5949 24.8133C45.499 26.3916 46.4515 28.5379 46.4517 31.2525C46.4517 33.399 45.8766 35.2771 44.7275 36.887C43.6113 38.4654 42.0202 39.6978 39.9519 40.5817C37.8836 41.434 35.4868 41.8602 32.762 41.8603C29.9056 41.8603 27.3597 41.5607 25.1272 40.9609C22.9278 40.3296 21.3187 39.5719 20.301 38.6881V31.8675C21.5486 32.8776 23.2737 33.7155 25.4735 34.3784C27.7058 35.0412 29.8569 35.3726 31.9251 35.3726C34.1243 35.3725 35.8148 35.0728 36.9966 34.4732C38.1785 33.8418 38.7688 32.9577 38.7688 31.8212C38.7688 30.8427 38.3101 30.0851 37.3909 29.5485C36.5046 28.9803 35.1259 28.4906 33.2549 28.0803L30.4968 27.4653C27.1154 26.7393 24.4881 25.6186 22.6167 24.1035C22.3542 23.8865 22.1114 23.6557 21.8857 23.4145L12.9115 41.2915H4.78622L18.5264 14.2055L14.5492 12.4349C12.5436 11.542 10.3728 11.0806 8.17747 11.0806C6.32664 11.0806 4.50906 11.5725 2.91078 12.5058L0 14.2055L3.55936 11.3562C4.57073 10.5466 5.7057 9.90487 6.92081 9.45563C9.60374 8.46372 12.4414 7.95594 15.3019 7.95594H26.2814L26.0457 7.81083C22.9807 5.92433 20.5038 3.21903 18.8943 0C20.086 1.98619 21.949 3.48056 24.1464 4.21303L25.1238 4.53883C25.8942 4.79565 26.6846 4.98844 27.4868 5.11523L40.2258 7.12876Z" fill="white"/>
</svg>
